<svg width="841" height="647" viewBox="0 0 841 647" fill="none" xmlns="http://www.w3.org/2000/svg">
<g opacity="0.6">
<path opacity="0.6" d="M719.031 476.491L696.047 463.239" stroke="url(#paint0_linear_2_307063)" stroke-width="16.4842" stroke-miterlimit="10" stroke-linecap="round" stroke-linejoin="round"/>
<path opacity="0.6" d="M673.059 450.041L537.354 372.078" stroke="url(#paint1_linear_2_307063)" stroke-width="16.4842" stroke-miterlimit="10" stroke-linecap="round" stroke-linejoin="round"/>
<path opacity="0.6" d="M693.738 440.904L679.937 432.995" stroke="url(#paint2_linear_2_307063)" stroke-width="16.4842" stroke-miterlimit="10" stroke-linecap="round" stroke-linejoin="round"/>
<path opacity="0.6" d="M656.953 419.796L560.343 364.276" stroke="url(#paint3_linear_2_307063)" stroke-width="16.4842" stroke-miterlimit="10" stroke-linecap="round" stroke-linejoin="round"/>
<path opacity="0.6" d="M600.078 428.987L577.094 415.788" stroke="url(#paint4_linear_2_307063)" stroke-width="16.4842" stroke-miterlimit="10" stroke-linecap="round" stroke-linejoin="round"/>
</g>
<g opacity="0.6">
<g opacity="0.6">
<g opacity="0.6">
<path opacity="0.6" d="M82.5556 315.062L105.594 328.314" stroke="url(#paint5_linear_2_307063)" stroke-width="16.4842" stroke-miterlimit="10" stroke-linecap="round" stroke-linejoin="round"/>
</g>
<g opacity="0.6">
<path opacity="0.6" d="M128.58 341.512L264.285 419.474" stroke="url(#paint6_linear_2_307063)" stroke-width="16.4842" stroke-miterlimit="10" stroke-linecap="round" stroke-linejoin="round"/>
</g>
<g opacity="0.6">
<path opacity="0.6" d="M107.855 308.596L121.656 316.558" stroke="url(#paint7_linear_2_307063)" stroke-width="16.4842" stroke-miterlimit="10" stroke-linecap="round" stroke-linejoin="round"/>
</g>
<g opacity="0.6">
<path opacity="0.6" d="M144.69 329.756L241.246 385.222" stroke="url(#paint8_linear_2_307063)" stroke-width="16.4842" stroke-miterlimit="10" stroke-linecap="round" stroke-linejoin="round"/>
</g>
<g opacity="0.6">
<path opacity="0.6" d="M201.509 404.299L224.547 417.498" stroke="#FF7F61" stroke-width="16.4842" stroke-miterlimit="10" stroke-linecap="round" stroke-linejoin="round"/>
</g>
</g>
</g>
<path d="M215.9 198.519L235.394 186.709C237.219 183.931 239.905 182.328 243.234 182.061C246.188 181.847 249.517 182.595 253.115 184.679L571.783 367.75C575.381 369.834 578.71 372.933 581.664 376.513C587.732 383.941 591.867 393.666 591.867 402.216V616.654C591.867 622.264 590.095 626.379 587.141 628.677L587.034 629.371L561.633 645.883L550.57 627.18L555.511 618.684L253.115 444.964C250.538 443.468 248.067 441.438 245.758 439.087C238.293 431.445 233.031 420.17 233.031 410.498V224.275L232.44 225.985L215.9 198.519Z" fill="url(#paint9_linear_2_307063)"/>
<path d="M209.183 426.689V212.305C209.183 203.755 213.318 198.786 219.386 198.305L332.59 392.544L221.964 455.331C214.499 447.689 209.183 436.414 209.183 426.689Z" fill="#1D212E"/>
<path d="M557.871 392.758C563.939 400.185 568.074 409.911 568.074 418.46V632.898C568.074 642.623 562.758 647.807 555.347 646.898L444.721 456.988L557.871 392.758Z" fill="#1D212E"/>
<path d="M229.268 461.208C226.691 459.712 224.22 457.681 221.911 455.384L332.537 392.597L374.371 464.414C382.212 477.88 394.939 485.201 402.779 480.712L444.667 456.933L555.293 646.844C552.984 646.523 550.567 645.722 547.936 644.226L229.268 461.208Z" fill="#121625"/>
<g filter="url(#filter0_d_2_307063)">
<path d="M374.424 464.361L219.387 198.305C222.34 198.091 225.67 198.839 229.268 200.923L547.935 383.94C551.533 386.024 554.917 389.124 557.816 392.704L402.779 480.659C394.992 485.148 382.265 477.827 374.424 464.361Z" fill="#121625"/>
</g>
<path d="M187.227 150.801C190.396 152.617 193.027 151.175 193.027 147.541C193.027 143.907 190.45 139.472 187.227 137.655C184.059 135.839 181.428 137.281 181.428 140.915C181.481 144.549 184.059 148.984 187.227 150.801ZM187.227 140.968C188.785 141.877 190.074 144.068 190.074 145.885C190.074 147.701 188.785 148.396 187.227 147.488C185.67 146.579 184.381 144.388 184.381 142.572C184.381 140.755 185.67 140.06 187.227 140.968Z" fill="url(#paint10_linear_2_307063)"/>
<path d="M510.782 87.1044C513.951 88.9212 516.582 87.4784 516.582 83.8448C516.582 80.2112 514.004 75.776 510.782 73.9592C507.614 72.1424 504.982 73.5851 504.982 77.2188C505.036 80.8524 507.614 85.2876 510.782 87.1044ZM510.782 77.2722C512.34 78.1806 513.628 80.3715 513.628 82.1883C513.628 84.0051 512.34 84.6998 510.782 83.7914C509.225 82.8829 507.936 80.6921 507.936 78.8753C507.936 77.0584 509.225 76.3638 510.782 77.2722Z" fill="url(#paint11_linear_2_307063)"/>
<path d="M635.958 618.577C639.126 620.394 641.758 618.951 641.758 615.317C641.758 611.684 639.18 607.249 635.958 605.432C632.79 603.615 630.158 605.058 630.158 608.691C630.212 612.325 632.79 616.76 635.958 618.577ZM635.958 608.745C637.515 609.653 638.804 611.844 638.804 613.661C638.804 615.478 637.515 616.172 635.958 615.264C634.401 614.356 633.112 612.165 633.112 610.348C633.112 608.531 634.401 607.836 635.958 608.745Z" fill="url(#paint12_linear_2_307063)"/>
<path d="M734.23 363.634C735.035 364.115 735.68 363.741 735.68 362.833V347.55C735.68 346.642 735.035 345.52 734.23 345.039C733.424 344.558 732.78 344.932 732.78 345.84V361.123C732.78 362.085 733.424 363.207 734.23 363.634Z" fill="url(#paint13_linear_2_307063)"/>
<path d="M727.572 352.199L740.89 359.84C741.695 360.321 742.34 359.947 742.34 359.039C742.34 358.131 741.695 357.008 740.89 356.527L727.518 348.833C726.713 348.352 726.068 348.726 726.068 349.634C726.068 350.596 726.766 351.718 727.572 352.199Z" fill="url(#paint14_linear_2_307063)"/>
<path d="M64.0344 205.892C64.8399 206.373 65.4844 205.999 65.4844 205.091V189.808C65.4844 188.9 64.8399 187.778 64.0344 187.297C63.2289 186.816 62.5846 187.19 62.5846 188.098V203.381C62.5309 204.289 63.2289 205.411 64.0344 205.892Z" fill="url(#paint15_linear_2_307063)"/>
<path d="M57.3267 194.404L70.6985 202.098C71.504 202.579 72.1484 202.205 72.1484 201.297C72.1484 200.388 71.504 199.266 70.6985 198.785L57.3267 191.091C56.5212 190.61 55.8768 190.984 55.8768 191.892C55.8768 192.8 56.5212 193.923 57.3267 194.404Z" fill="url(#paint16_linear_2_307063)"/>
<path d="M365.136 18.8063C365.942 19.2872 366.586 18.9132 366.586 18.0048V2.72214C366.586 1.81373 365.942 0.691576 365.136 0.210654C364.33 -0.270268 363.686 0.103782 363.686 1.01219V16.2948C363.632 17.2567 364.33 18.3254 365.136 18.8063Z" fill="url(#paint17_linear_2_307063)"/>
<path d="M358.424 7.37133L371.796 15.0661C372.602 15.547 373.246 15.1729 373.246 14.2645C373.246 13.3561 372.602 12.234 371.796 11.7531L358.424 4.05831C357.619 3.57739 356.974 3.95144 356.974 4.85985C356.974 5.76825 357.619 6.89041 358.424 7.37133Z" fill="url(#paint18_linear_2_307063)"/>
<path d="M177.076 288.986C177.774 288.986 178.473 288.772 179.063 288.344C180.459 287.329 180.782 285.405 179.976 283.642L172.888 268.092C177.023 259.008 176.647 246.237 171.76 232.718C167.464 220.695 160.106 209.42 151.138 200.977C141.955 192.32 132.02 187.671 123.213 187.778C116.393 187.885 110.754 190.824 106.995 196.274C100.766 205.198 100.39 219.893 105.975 235.496C110.271 247.519 117.628 258.794 126.596 267.237C135.779 275.894 145.714 280.543 154.521 280.436C157.636 280.382 160.536 279.741 163.221 278.405L174.606 288.077C175.304 288.611 176.217 288.986 177.076 288.986ZM123.589 193.335C130.893 193.335 139.27 197.45 147.272 204.984C155.595 212.84 162.416 223.313 166.443 234.534C170.954 247.038 171.223 259.061 167.249 266.703C166.873 267.451 166.819 268.359 167.195 269.161L171.115 277.711L165.369 272.848C164.456 272.046 163.06 271.939 162.04 272.634C159.838 274.023 157.26 274.772 154.414 274.825C147.057 274.932 138.572 270.817 130.409 263.176C122.085 255.321 115.265 244.848 111.238 233.626C106.243 219.679 106.351 206.962 111.56 199.481C114.299 195.526 118.273 193.496 123.267 193.389C123.374 193.335 123.482 193.335 123.589 193.335Z" fill="#2C4068"/>
<path d="M160.211 266.382L118.86 242.603C118.86 231.328 125.788 225.878 135.025 228.817C130.943 224.435 128.043 218.129 128.043 212.732C128.043 205.465 133.199 202.526 139.536 206.213C145.872 209.847 151.028 218.717 151.028 225.985C151.028 231.382 148.182 234.374 144.047 234.053C153.283 241.748 160.211 255.107 160.211 266.382Z" fill="#2C4068"/>
<path d="M648.198 186.388C648.789 186.388 649.38 186.388 649.971 186.334C656.093 185.854 661.087 182.754 664.309 177.464C668.605 170.411 669.411 160.204 666.618 148.662C663.879 137.334 657.972 125.952 650.024 116.654C639.66 104.631 627.308 97.9517 616.998 98.7532C610.876 99.2341 605.881 102.333 602.659 107.624C597.88 115.479 597.45 127.448 601.478 140.54L594.98 147.326C594.282 148.021 594.067 149.036 594.389 150.105C594.658 151.12 595.463 152.403 596.859 152.83L608.459 156.304C610.983 160.685 613.883 164.8 616.998 168.433C626.664 179.815 638.264 186.388 648.198 186.388ZM646.963 119.219C662.483 137.28 668.713 162.449 660.872 175.327C658.348 179.495 654.428 181.899 649.648 182.273C640.573 183.021 629.51 176.823 620.005 165.762C616.89 162.128 613.99 158.013 611.52 153.578C611.251 153.097 610.822 152.777 610.339 152.616L598.739 149.143L605.237 142.357C605.774 141.822 605.935 141.074 605.72 140.326C601.692 127.876 601.8 116.708 606.15 109.601C608.674 105.433 612.594 103.028 617.373 102.654C626.342 102.013 637.458 108.158 646.963 119.219Z" fill="#2C4068"/>
<path d="M624.895 138.509C624.895 141.555 622.746 142.731 620.115 141.234C617.484 139.738 615.336 136.051 615.336 133.005C615.336 129.959 617.484 128.784 620.115 130.28C622.746 131.776 624.895 135.463 624.895 138.509Z" fill="#2C4068"/>
<path d="M638.32 146.204C638.32 149.25 636.172 150.426 633.541 148.93C630.909 147.433 628.761 143.746 628.761 140.701C628.761 137.655 630.909 136.479 633.541 137.975C636.172 139.525 638.32 143.212 638.32 146.204Z" fill="#2C4068"/>
<path d="M651.746 153.952C651.746 156.998 649.598 158.174 646.967 156.678C644.335 155.182 642.187 151.494 642.187 148.449C642.187 145.403 644.335 144.227 646.967 145.723C649.598 147.22 651.746 150.907 651.746 153.952Z" fill="#2C4068"/>
<path opacity="0.26" d="M526.407 262.107L675.644 347.872C681.874 351.452 686.922 346.803 686.922 337.452V286.901C686.922 277.55 681.874 267.077 675.644 263.496L526.407 177.785C520.177 174.205 515.129 178.854 515.129 188.205V238.756C515.129 248.053 520.177 258.527 526.407 262.107Z" fill="url(#paint19_linear_2_307063)"/>
<path opacity="0.26" d="M522.114 264.565L671.351 350.33C677.581 353.91 682.629 349.261 682.629 339.91V289.359C682.629 280.008 677.581 269.535 671.351 265.954L522.114 180.243C515.884 176.663 510.836 181.312 510.836 190.663V241.214C510.783 250.511 515.884 260.985 522.114 264.565Z" fill="url(#paint20_linear_2_307063)"/>
<path d="M514.322 268.038L663.613 353.749C669.843 357.33 674.891 352.681 674.891 343.329V292.779C674.891 283.428 669.843 272.955 663.613 269.374L514.375 183.663C508.146 180.083 503.098 184.732 503.098 194.083V244.634C503.044 253.985 508.092 264.458 514.322 268.038Z" fill="url(#paint21_linear_2_307063)"/>
<path d="M620.71 286.955C620.71 302.237 630.269 320.138 642.084 326.925C653.898 333.711 663.457 326.818 663.457 311.535C663.457 296.253 653.898 278.352 642.084 271.565C630.269 264.779 620.71 271.672 620.71 286.955Z" fill="#252D89"/>
<path d="M635.963 288.825C635.963 284.443 638.702 282.466 642.085 284.443C645.468 286.421 648.207 291.443 648.207 295.825C648.207 300.207 645.468 302.184 642.085 300.207C638.702 298.283 635.963 293.207 635.963 288.825Z" fill="#252D89"/>
<path d="M642.087 300.261C647.994 303.627 652.773 312.605 652.773 320.246L631.4 307.956C631.4 300.314 636.18 296.841 642.087 300.261Z" fill="#252D89"/>
<path d="M514.485 219.465L609.43 273.97V269.428L514.485 214.977V219.465Z" fill="#252D89"/>
<path d="M514.485 236.939L609.43 291.55V287.008L514.485 232.396V236.939Z" fill="#252D89"/>
<path d="M518.565 263.604L659.372 344.505C665.279 347.872 670.059 344.292 670.059 336.49V294.115C670.059 286.314 665.279 277.23 659.372 273.81L518.565 192.908C512.658 189.542 507.879 193.122 507.879 200.923V243.351C507.879 251.153 512.658 260.237 518.565 263.604Z" fill="#F5F5F7" fill-opacity="0.57"/>
<path d="M617.534 285.138C617.534 297.268 626.126 312.017 636.759 318.108C647.338 324.2 655.984 319.337 655.984 307.207C655.984 295.077 647.392 280.329 636.759 274.237C626.126 268.146 617.534 273.008 617.534 285.138Z" fill="#F4F5F0" stroke="#231F20" stroke-width="0.2868" stroke-miterlimit="10"/>
<path d="M631.232 287.543C631.232 284.07 633.703 282.68 636.71 284.444C639.717 286.207 642.188 290.428 642.188 293.848C642.188 297.322 639.717 298.711 636.71 296.948C633.703 295.184 631.232 290.963 631.232 287.543Z" fill="#7C90F1"/>
<path d="M636.708 296.948C642.024 299.994 646.32 307.368 646.32 313.46L627.095 302.398C627.095 296.36 631.391 293.902 636.708 296.948Z" fill="#2566F8"/>
<path d="M522 225.13L607.332 274.131V270.55L522 221.55V225.13Z" fill="url(#paint22_linear_2_307063)"/>
<path d="M522 238.97L607.332 288.077V284.444L522 235.39V238.97Z" fill="url(#paint23_linear_2_307063)"/>
<path d="M772.523 380.574C773.007 380.307 773.114 379.719 772.845 379.238C772.577 378.757 771.986 378.651 771.503 378.918C768.818 380.467 765.972 382.017 763.072 383.46C762.588 383.727 762.427 384.261 762.642 384.742C762.857 385.223 763.448 385.383 763.931 385.17C766.938 383.727 769.784 382.177 772.523 380.574ZM777.464 377.582C780.256 375.765 782.941 373.948 785.465 372.025C785.895 371.704 785.949 371.116 785.627 370.689C785.304 370.261 784.714 370.208 784.284 370.528C781.814 372.399 779.182 374.215 776.444 375.979C776.014 376.246 775.853 376.834 776.175 377.315C776.444 377.689 776.981 377.849 777.464 377.582ZM758.829 387.681C759.259 387.414 759.42 386.88 759.205 386.452C758.99 385.971 758.4 385.758 757.916 385.971C755.07 387.307 752.117 388.59 749.109 389.765C748.626 389.979 748.357 390.513 748.572 390.994C748.787 391.475 749.324 391.742 749.807 391.529C752.868 390.3 755.822 389.017 758.722 387.681C758.776 387.735 758.776 387.735 758.829 387.681ZM789.869 368.498C789.923 368.498 789.976 368.444 789.976 368.391C792.5 366.253 794.917 364.063 797.119 361.818C797.495 361.444 797.495 360.856 797.119 360.482C796.743 360.108 796.152 360.108 795.776 360.482C793.628 362.673 791.265 364.864 788.741 366.948C788.312 367.269 788.258 367.91 788.634 368.284C788.956 368.658 789.493 368.712 789.869 368.498ZM744.598 393.666C744.974 393.452 745.189 392.918 745.028 392.49C744.867 392.009 744.276 391.742 743.793 391.956C741.859 392.704 739.872 393.399 737.832 394.093C737.349 394.254 737.08 394.788 737.241 395.323C737.402 395.803 737.939 396.071 738.476 395.91C740.517 395.216 742.504 394.468 744.437 393.773C744.491 393.719 744.545 393.666 744.598 393.666ZM800.878 357.757C800.985 357.704 801.039 357.65 801.093 357.543C803.241 355.085 805.281 352.467 807.054 349.849C807.376 349.421 807.215 348.833 806.785 348.513C806.356 348.192 805.765 348.352 805.443 348.78C803.67 351.345 801.737 353.856 799.643 356.314C799.267 356.742 799.321 357.33 799.75 357.65C800.072 357.971 800.556 357.971 800.878 357.757ZM809.846 345.307C810.007 345.2 810.115 345.093 810.168 344.986C811.833 342.154 813.229 339.215 814.465 336.276C814.679 335.795 814.411 335.207 813.927 335.047C813.444 334.833 812.853 335.1 812.692 335.581C811.511 338.467 810.115 341.299 808.504 344.078C808.235 344.559 808.396 345.146 808.88 345.414C809.202 345.467 809.578 345.467 809.846 345.307ZM816.076 331.253C816.29 331.146 816.451 330.932 816.505 330.719C817.472 327.619 818.224 324.413 818.761 321.261C818.868 320.726 818.492 320.245 817.955 320.138C817.418 320.032 816.935 320.406 816.827 320.94C816.344 324.039 815.592 327.139 814.626 330.131C814.465 330.612 814.733 331.2 815.27 331.36C815.539 331.413 815.861 331.413 816.076 331.253ZM818.975 316.184C819.244 316.024 819.405 315.757 819.459 315.436C819.727 312.176 819.674 308.863 819.459 305.657C819.405 305.123 818.975 304.749 818.438 304.749C817.901 304.802 817.526 305.23 817.526 305.764C817.794 308.863 817.794 312.016 817.526 315.222C817.472 315.757 817.901 316.238 818.438 316.238C818.6 316.344 818.814 316.291 818.975 316.184ZM818.224 300.848C818.546 300.634 818.761 300.26 818.653 299.833C818.653 299.779 818.653 299.779 818.653 299.726C818.653 299.726 818.653 299.726 818.707 299.726C819.19 299.459 819.351 298.924 819.137 298.443C818.975 298.123 818.653 297.909 818.277 297.909C818.009 296.734 817.74 295.825 817.526 295.398C817.203 294.596 816.881 293.848 816.451 293.207C815.807 292.191 815.109 291.337 814.303 290.695C813.874 290.375 813.283 290.428 812.961 290.856C812.639 291.283 812.692 291.871 813.122 292.192C813.713 292.672 814.303 293.314 814.787 294.169C815.109 294.703 815.431 295.344 815.7 296.039C815.861 296.413 816.129 297.268 816.451 298.657C815.807 298.978 815.163 299.245 814.518 299.512C812.424 300.367 810.652 300.795 809.148 300.795C808.611 300.795 808.181 301.222 808.181 301.757C808.181 302.291 808.611 302.718 809.148 302.718C810.92 302.718 812.961 302.237 815.27 301.329C815.807 301.115 816.398 300.848 816.935 300.581C817.15 300.902 817.526 301.062 817.901 301.008C818.009 300.955 818.116 300.902 818.224 300.848ZM823.701 296.734C823.701 296.734 823.755 296.734 823.755 296.68C826.494 294.756 828.964 292.566 831.058 290.108C831.381 289.68 831.381 289.092 830.951 288.772C830.521 288.451 829.931 288.451 829.608 288.878C827.568 291.23 825.259 293.314 822.627 295.13C822.198 295.451 822.09 296.039 822.412 296.466C822.681 296.894 823.272 297.001 823.701 296.734ZM834.281 285.726C834.388 285.672 834.495 285.565 834.603 285.405C836.321 282.68 837.717 279.688 838.738 276.481C838.899 276 838.63 275.413 838.093 275.252C837.61 275.092 837.019 275.359 836.858 275.894C835.892 278.939 834.549 281.772 832.938 284.39C832.669 284.817 832.777 285.459 833.26 285.726C833.582 285.886 833.958 285.886 834.281 285.726ZM804.959 299.833C805.335 299.619 805.55 299.085 805.389 298.657C804.959 297.535 805.12 296.039 805.819 294.863C806.57 293.581 807.644 292.512 808.826 291.924C809.309 291.711 809.47 291.123 809.255 290.642C808.987 290.161 808.45 290.001 807.967 290.214C806.463 290.962 805.067 292.298 804.154 293.901C803.187 295.611 802.972 297.695 803.617 299.352C803.832 299.833 804.369 300.1 804.852 299.886C804.852 299.886 804.906 299.886 804.959 299.833ZM839.704 271.405C839.919 271.245 840.134 271.031 840.188 270.764C840.778 267.611 841.047 264.351 840.993 261.038C840.993 260.504 840.564 260.077 840.027 260.077C839.49 260.077 839.06 260.504 839.06 261.038C839.114 264.245 838.845 267.397 838.308 270.39C838.201 270.924 838.577 271.405 839.06 271.512C839.329 271.565 839.543 271.565 839.704 271.405ZM840.134 256.122C840.456 255.909 840.671 255.588 840.617 255.161C840.241 252.008 839.597 248.748 838.684 245.596C838.523 245.061 837.986 244.794 837.503 244.954C836.966 245.115 836.697 245.649 836.858 246.13C837.664 249.229 838.308 252.328 838.684 255.428C838.738 255.962 839.221 256.336 839.758 256.283C839.866 256.229 840.027 256.176 840.134 256.122ZM836.375 241.267C836.751 241.053 836.966 240.519 836.805 240.092C835.623 237.099 834.227 234.107 832.616 231.275C832.347 230.794 831.757 230.634 831.327 230.901C830.897 231.168 830.683 231.756 830.951 232.183C832.508 234.962 833.851 237.794 835.032 240.733C835.247 241.214 835.784 241.481 836.268 241.267C836.268 241.321 836.321 241.267 836.375 241.267ZM829.179 227.695C829.233 227.641 829.233 227.641 829.179 227.695C829.662 227.374 829.77 226.786 829.501 226.305C827.675 223.633 825.581 221.069 823.379 218.664C823.003 218.29 822.412 218.236 822.036 218.61C821.661 218.985 821.607 219.572 821.983 219.946C824.131 222.244 826.118 224.756 827.89 227.32C828.212 227.801 828.749 227.908 829.179 227.695ZM819.029 216.099C819.137 216.046 819.19 215.992 819.244 215.939C819.62 215.565 819.566 214.923 819.19 214.603C816.72 212.412 814.142 210.435 811.404 208.671C810.974 208.404 810.383 208.511 810.061 208.939C809.792 209.366 809.9 209.954 810.329 210.274C812.961 211.984 815.485 213.908 817.848 215.992C818.224 216.313 818.707 216.313 819.029 216.099ZM806.356 207.389C806.517 207.282 806.624 207.175 806.731 207.015C807 206.534 806.785 205.946 806.302 205.732C803.402 204.236 800.341 203.007 797.226 202.045C796.743 201.885 796.152 202.152 795.991 202.687C795.83 203.168 796.098 203.755 796.635 203.916C799.643 204.824 802.596 206.053 805.389 207.496C805.765 207.603 806.087 207.549 806.356 207.389ZM791.856 202.366C792.071 202.206 792.232 201.992 792.286 201.725C792.393 201.19 792.071 200.709 791.534 200.603C788.365 199.961 785.09 199.587 781.814 199.48C781.277 199.48 780.847 199.908 780.793 200.389C780.793 200.923 781.223 201.351 781.706 201.404C784.875 201.511 788.043 201.885 791.104 202.473C791.426 202.526 791.641 202.473 791.856 202.366Z" fill="url(#paint24_linear_2_307063)"/>
<path d="M10.9736 198.571C12.2624 201.457 13.6586 204.396 15.1623 207.282C15.4308 207.762 15.9678 207.923 16.4511 207.709C16.9344 207.442 17.0956 206.907 16.8808 206.427C15.3771 203.541 13.9808 200.655 12.7457 197.823C12.5309 197.342 11.9402 197.129 11.4569 197.342C10.9736 197.503 10.7588 198.037 10.9736 198.571C10.9736 198.518 10.9736 198.571 10.9736 198.571ZM9.95321 193.709C10.4365 193.495 10.705 192.961 10.4902 192.48C9.30878 189.487 8.23473 186.442 7.3218 183.503C7.16069 183.022 6.6237 182.701 6.14038 182.861C5.65707 183.022 5.33482 183.556 5.49592 184.037C6.40885 187.029 7.4829 190.129 8.66434 193.174C8.66434 193.174 8.66434 193.174 8.66434 193.228C8.93285 193.709 9.46989 193.923 9.95321 193.709ZM17.9011 212.358C19.4048 215.083 21.0695 217.915 22.8417 220.694C23.1102 221.121 23.7009 221.282 24.1842 221.014C24.6138 220.747 24.7749 220.16 24.5064 219.679C22.7879 216.9 21.1232 214.175 19.6196 211.449C19.351 210.969 18.7603 210.808 18.3307 211.075C17.9011 211.343 17.74 211.824 17.9011 212.304C17.8474 212.304 17.8474 212.358 17.9011 212.358ZM5.12003 179.174C5.65705 179.067 5.92559 178.533 5.81818 177.999C5.01266 174.846 4.42194 171.747 3.93861 168.701C3.88492 168.167 3.34789 167.792 2.86458 167.899C2.32756 167.953 1.95164 168.487 2.05905 168.968C2.54237 172.067 3.18678 175.273 3.9923 178.48C3.9923 178.533 4.046 178.586 4.046 178.64C4.2071 179.014 4.69041 179.281 5.12003 179.174ZM25.9564 225.557C27.0841 227.266 28.3193 229.03 29.5544 230.793C29.8766 231.221 30.4673 231.328 30.897 231.007C31.3266 230.686 31.434 230.099 31.1118 229.671C29.8766 227.961 28.6952 226.198 27.5675 224.488C27.299 224.06 26.6545 223.9 26.2249 224.221C25.849 224.488 25.6879 224.969 25.849 225.396C25.9027 225.503 25.9027 225.503 25.9564 225.557ZM2.38125 164.052C2.91827 163.999 3.29417 163.518 3.24046 163.037C2.97195 159.831 2.86456 156.678 2.97195 153.579C2.97195 153.044 2.54237 152.617 2.05905 152.563C1.52203 152.563 1.0924 152.991 1.0387 153.472C0.931297 156.624 1.0387 159.884 1.30721 163.197C1.30721 163.304 1.3609 163.411 1.3609 163.518C1.57571 163.838 2.00533 164.105 2.38125 164.052ZM2.32756 148.716C2.86458 148.769 3.34789 148.395 3.4016 147.861C3.72381 144.708 4.26083 141.556 5.01266 138.51C5.12006 137.975 4.79782 137.494 4.31451 137.334C3.77748 137.227 3.2942 137.548 3.13309 138.029C2.38126 141.128 1.79049 144.334 1.46828 147.594C1.46828 147.754 1.46833 147.914 1.52203 148.075C1.68314 148.449 1.95164 148.716 2.32756 148.716ZM5.38854 133.7C5.87186 133.861 6.46261 133.594 6.62371 133.113C7.64405 130.12 8.87915 127.181 10.2754 124.403C10.4902 123.922 10.3291 123.334 9.84583 123.12C9.36251 122.906 8.77177 123.067 8.55697 123.548C7.10702 126.433 5.81817 129.479 4.79784 132.525C4.74413 132.739 4.74412 133.006 4.85152 133.22C4.90523 133.433 5.12003 133.594 5.38854 133.7ZM11.6716 119.7C12.1013 119.967 12.7457 119.861 13.0142 119.38C14.6789 116.654 16.5585 114.09 18.5992 111.738C18.9214 111.311 18.9214 110.723 18.4918 110.402C18.0622 110.082 17.4715 110.082 17.1493 110.509C15.0549 112.967 13.1216 115.586 11.4031 118.418C11.242 118.685 11.242 119.006 11.3494 119.326C11.4031 119.433 11.5105 119.593 11.6716 119.7ZM21.1769 107.57C21.4454 107.838 21.8751 107.944 22.1973 107.838C22.5195 108.372 22.788 108.906 23.1102 109.387C24.399 111.525 25.7952 113.128 27.2452 114.143C27.6748 114.464 28.2655 114.357 28.5877 113.929C28.91 113.502 28.8026 112.914 28.373 112.593C27.1378 111.738 25.9564 110.296 24.7749 108.425C24.399 107.838 24.0231 107.196 23.7009 106.609C24.7212 105.7 25.473 105.166 25.849 104.952C26.4934 104.525 27.0841 104.204 27.6748 103.937C28.5878 103.563 29.3933 103.349 30.1451 103.296C30.6821 103.296 31.1118 102.815 31.0581 102.28C31.0581 101.746 30.5748 101.318 30.0377 101.372C29.0174 101.425 27.9434 101.692 26.8693 102.12C26.1712 102.441 25.4731 102.815 24.7212 103.242C24.2916 103.509 23.5935 104.044 22.6268 104.845C22.3583 104.631 21.9825 104.631 21.6602 104.792C21.1769 105.005 21.0158 105.593 21.2306 106.074C21.2306 106.074 21.2306 106.074 21.2306 106.128C21.1769 106.128 21.1769 106.181 21.1232 106.181C20.801 106.448 20.7473 106.876 20.9084 107.25C21.0158 107.41 21.0695 107.517 21.1769 107.57ZM20.1566 101.318C20.6399 101.158 20.9084 100.57 20.7473 100.089C19.7269 97.097 19.0288 94.0511 18.7603 90.9518C18.7066 90.4175 18.2233 90.0434 17.74 90.0969C17.203 90.1503 16.8271 90.6312 16.8808 91.1122C17.1493 94.3183 17.8474 97.5779 18.9214 100.731V100.784C19.1899 101.212 19.6733 101.479 20.1566 101.318ZM17.74 86.2495C18.277 86.3029 18.7066 85.8754 18.7603 85.3411C18.9751 82.2952 19.5659 79.196 20.5862 76.1501C20.7473 75.6692 20.4788 75.0814 19.9417 74.9211C19.4584 74.7608 18.8678 75.028 18.7066 75.5623C17.6863 78.715 17.0419 81.9746 16.8271 85.1808C16.8271 85.3411 16.8271 85.5014 16.8808 85.6083C17.0419 85.9823 17.3641 86.1961 17.74 86.2495ZM32.4006 114.357C32.6691 114.784 33.3136 114.945 33.7432 114.624C35.2468 113.662 36.3208 111.899 36.5357 109.922C36.7505 108.105 36.4283 106.234 35.6764 104.685C35.4079 104.204 34.8709 104.044 34.3876 104.257C33.9043 104.525 33.7431 105.059 33.9579 105.54C34.5487 106.715 34.8172 108.212 34.6561 109.654C34.495 111.044 33.7432 112.326 32.7228 112.967C32.3469 113.235 32.1858 113.715 32.3469 114.143C32.3469 114.25 32.3469 114.303 32.4006 114.357ZM21.3917 71.3943C21.8751 71.6081 22.4657 71.3943 22.6805 70.9669C24.0231 68.1882 25.6342 65.5164 27.5675 62.9515C27.8897 62.524 27.7823 61.9362 27.3526 61.6156C26.923 61.295 26.3323 61.4019 26.0101 61.8294C24.0231 64.5011 22.3047 67.3332 20.9084 70.1653C20.801 70.4325 20.801 70.6997 20.9084 70.9669C21.0158 71.1272 21.1769 71.2875 21.3917 71.3943ZM29.8766 58.6232C30.2525 58.9973 30.8969 58.9438 31.2192 58.5698C33.3135 56.3255 35.6764 54.1346 38.2004 52.1575C38.63 51.8369 38.6837 51.2491 38.3615 50.8216C38.0393 50.3941 37.4486 50.3407 37.019 50.6613C34.3876 52.6918 31.971 54.9361 29.8229 57.2873C29.5544 57.5545 29.5007 57.982 29.6618 58.3026C29.6618 58.4095 29.7692 58.5163 29.8766 58.6232ZM41.53 48.5773C41.7985 49.0048 42.4429 49.1651 42.8725 48.8445C45.5039 47.1345 48.2964 45.5849 51.1963 44.3024C51.6796 44.0887 51.8944 43.5009 51.6796 43.02C51.4648 42.539 50.8741 42.3253 50.3908 42.539C47.4372 43.8749 44.5373 45.478 41.7985 47.2414C41.4226 47.5086 41.2614 47.9895 41.4225 48.417C41.4762 48.4704 41.4763 48.5238 41.53 48.5773ZM56.4591 42.165C59.4664 41.0963 62.5274 40.2413 65.6421 39.6535C66.1791 39.5466 66.5013 39.0657 66.3939 38.5314C66.2865 37.997 65.8032 37.6764 65.2662 37.7833C62.0978 38.4245 58.9294 39.2795 55.8147 40.4016C55.3313 40.5619 55.0628 41.1497 55.2239 41.6306V41.6841C55.4388 42.1116 55.9757 42.3253 56.4591 42.165ZM71.2808 38.7985C74.4492 38.4779 77.6713 38.371 80.7861 38.5314C81.3231 38.5848 81.7527 38.1573 81.8064 37.6229C81.8601 37.0886 81.4304 36.6611 80.8934 36.6077C77.6713 36.4474 74.3955 36.5008 71.1197 36.8748C70.5827 36.9283 70.2068 37.4092 70.2605 37.9436C70.2605 38.0504 70.3142 38.1573 70.3142 38.2107C70.4753 38.5848 70.8512 38.7985 71.2808 38.7985ZM86.4248 39.1192C89.5395 39.6001 92.6542 40.3482 95.6078 41.3635C96.0911 41.5238 96.6818 41.2566 96.8429 40.7757C97.004 40.2947 96.7355 39.7069 96.2522 39.5466C93.1912 38.5314 89.9691 37.7298 86.747 37.2489C86.2099 37.142 85.7266 37.5161 85.6192 38.0504C85.5655 38.2107 85.6192 38.4245 85.6729 38.5848C85.834 38.852 86.1025 39.0657 86.4248 39.1192ZM100.924 43.4474C103.77 44.7299 106.563 46.2795 109.194 48.0964C109.624 48.417 110.215 48.2567 110.537 47.8292C110.859 47.4017 110.698 46.8139 110.268 46.4933C107.53 44.6765 104.683 43.02 101.73 41.6841C101.246 41.4703 100.656 41.6841 100.441 42.165C100.334 42.4322 100.334 42.6993 100.441 42.9665C100.548 43.1803 100.709 43.3406 100.924 43.4474Z" fill="url(#paint25_linear_2_307063)"/>
<path d="M417.228 92.2879C422.168 90.5245 426.303 90.5245 431.673 91.1123C441.769 92.181 450.308 97.0971 452.026 107.891C453.315 116.013 450.254 124.349 447.032 131.67C442.736 141.395 439.782 137.869 439.782 137.869C431.512 134.556 423.242 131.243 414.972 127.93C412.663 127.021 409.226 126.326 407.346 124.67C404.339 121.998 405.306 117.51 404.769 113.929C404.017 109.174 403.319 105.166 405.896 100.784C407.991 97.3108 411.428 94.7993 415.187 93.1428C415.831 92.7688 416.529 92.5016 417.228 92.2879Z" fill="url(#paint26_linear_2_307063)"/>
<path d="M333.345 222.991C336.084 223.045 338.447 222.083 342.26 222.404C345.643 222.724 347.845 222.831 350.906 222.243C354.02 221.709 362.237 214.762 368.788 208.297C376.575 200.655 383.342 189.38 385.167 183.556C388.282 173.724 392.793 153.632 395.049 146.845C397.304 140.059 400.634 138.616 404.822 137.815C409.655 136.853 412.931 138.616 410.891 148.769C408.85 158.868 404.232 178.212 398.056 190.823C395.049 196.915 389.356 206.319 379.421 216.152C372.494 223.045 365.942 227.213 357.618 232.343C355.363 233.732 354.02 235.335 349.993 238.541C345.965 241.747 340.595 244.473 336.352 245.06C332.11 245.702 330.499 245.221 329.962 244.419C329.317 243.404 330.015 242.549 331.949 242.014C333.882 241.534 337.104 240.999 340.648 238.701C340.648 238.701 336.513 239.984 333.989 240.572C331.465 241.16 328.888 241.32 327.116 241.16C324.914 240.999 323.195 238.221 325.075 237.633C327.008 237.098 328.619 237.152 332.325 236.297C335.708 235.495 338.071 234.213 338.071 234.213C338.071 234.213 333.989 234.961 330.391 234.961C326.847 234.961 325.397 234.213 324.43 233.679C323.518 233.144 323.034 231.22 325.504 230.846C327.706 230.526 330.66 231.007 334.795 229.724C337.802 228.762 339.789 227.694 339.252 227.373C338.715 227.052 336.997 227.747 334.312 227.266C331.734 226.839 329.478 224.862 329.854 223.419C330.23 222.083 330.606 222.938 333.345 222.991Z" fill="#FFCBCA"/>
<path d="M405.305 136.746C400.418 135.784 396.23 140.219 393.867 147.219C391.504 154.219 388.282 169.395 386.295 174.632C384.308 179.869 383.663 184.197 383.663 184.197C383.663 184.197 391.934 191.25 401.224 189.434C401.224 189.434 407.292 173.617 410.031 160.311C412.77 146.952 414.059 138.456 405.305 136.746Z" fill="#2940D3"/>
<path d="M363.312 352.359C363.312 352.359 363.634 355.085 364.225 357.329C364.816 359.573 365.353 363.26 364.977 365.131C364.547 366.947 359.338 369.512 356.438 369.94C353.538 370.314 349.081 373.413 347.416 375.444C345.053 378.436 338.824 380.627 334.742 380.146C330.715 379.665 326.15 378.757 325.183 377.1C324.217 375.497 325.559 373.68 334.044 367.642C342.529 361.657 348.168 357.97 350.853 352.413L363.312 352.359Z" fill="black"/>
<path d="M394.03 409.376C391.881 412.422 388.23 413.864 384.578 414.399C382.645 414.666 380.658 414.666 378.725 414.613C376.684 414.559 373.462 413.384 373.677 410.819C373.73 410.017 374.267 409.322 374.751 408.681C378.08 404.406 381.624 400.345 384.685 395.857C388.122 390.834 391.506 386.024 392.741 378.437L405.468 378.597C405.522 379.666 405.79 381.162 406.005 382.551C406.22 383.94 406.596 385.33 406.918 386.719C407.562 389.444 407.992 392.33 406.542 394.948C405.468 396.872 403.374 397.941 401.655 399.383C398.326 401.948 396.446 405.903 394.03 409.376Z" fill="black"/>
<path d="M453.96 242.122C458.578 270.763 443.757 279.099 429.74 289.84C418.355 298.55 407.132 304.909 407.132 304.909C407.132 304.909 408.421 311.642 408.528 325.749C408.635 338.146 405.36 378.543 405.36 378.543C405.36 378.543 398.486 382.07 392.632 378.383C392.632 378.383 388.336 347.818 386.349 332.214C383.557 310.306 381.086 300.42 382.16 295.825C383.127 291.817 401.332 271.672 405.736 264.939L365.083 288.45C365.083 288.45 366.479 298.764 366.265 306.405C365.835 323.237 363.257 352.36 363.257 352.36C363.257 352.36 356.545 357.169 350.852 352.467C350.852 352.467 338.071 283.908 338.071 277.87C338.071 268.679 375.286 245.702 383.61 240.251C390.323 235.87 397.841 230.099 397.841 230.099L453.96 242.122Z" fill="#2C4068"/>
<path d="M405.789 264.939C405.789 264.939 399.291 260.13 396.499 251.74C396.499 251.74 396.875 257.404 397.949 261.786C399.023 266.168 365.137 288.451 365.137 288.451L405.789 264.939Z" fill="#597BC6"/>
<path d="M437.205 132.738C437.205 132.738 436.507 146.364 436.829 147.593C437.152 148.822 443.113 152.777 444.885 154.219C446.603 155.662 435.433 166.67 429.956 169.128C424.478 171.64 407.24 165.067 406.917 156.624C406.595 148.181 409.871 141.074 412.502 140.7C415.134 140.326 437.205 132.738 437.205 132.738Z" fill="#FFCBCA"/>
<path d="M438.764 148.609C438.764 148.609 428.829 163.357 414.974 164.747C410.624 160.472 410.194 145.189 416.263 140.327C416.263 140.327 410.678 135.838 406.918 136.746C406.918 136.746 400.904 139.846 398.38 147.594C395.802 155.395 393.224 164.693 393.493 179.121C393.761 195.098 395.319 238.328 395.05 230.686C395.05 230.686 393.278 238.381 405.844 245.328C418.411 252.275 429.957 255.481 438.442 253.504C445.476 251.9 452.941 247.626 454.069 242.068C453.424 231.915 451.276 215.03 452.995 202.259C454.713 189.541 454.552 178.961 455.25 168.648C455.948 158.334 453.908 158.548 448.699 154.861C441.61 149.998 438.764 148.609 438.764 148.609Z" fill="#A9B8FA"/>
<path d="M406.219 112.38C407.83 101.8 415.509 93.7844 426.464 94.3722C438.118 95.0134 447.086 104.952 446.388 116.548C446.012 123.334 442.414 129.105 437.205 132.686C437.205 132.686 436.184 136.533 435.486 137.335C431.62 141.823 419.859 144.655 416.529 144.174C412.18 143.533 409.87 141.77 407.776 137.067C404.178 128.731 405.306 117.617 406.219 112.38Z" fill="#FFCBCA"/>
<path d="M445.744 272.366C447.892 270.71 449.234 268.519 452.456 266.435C455.249 264.565 456.376 263.763 458.149 261.145C460.028 258.313 462.069 248.694 463.036 239.557C464.163 228.763 461.8 214.869 459.975 209.098C456.215 197.342 448.321 181.418 445.744 174.739C443.166 168.06 444.831 164.8 447.516 161.594C450.684 157.8 456.215 158.014 461.049 167.151C465.935 176.235 472.809 193.228 476.031 206.907C477.589 213.533 479.2 224.381 477.75 238.221C476.783 247.946 474.313 255.267 471.198 264.511C470.339 267.023 470.339 269.107 469.265 274.076C468.191 279.046 465.774 284.549 462.874 287.756C459.975 290.908 458.417 291.603 457.558 291.282C456.43 290.908 456.43 289.786 457.558 288.183C458.686 286.58 460.887 284.122 462.176 280.114C462.176 280.114 459.813 283.695 458.256 285.779C456.645 287.809 454.765 289.519 453.315 290.588C451.49 291.87 448.375 290.801 449.503 289.145C450.63 287.488 451.919 286.527 454.282 283.481C456.377 280.702 457.397 278.244 457.397 278.244C457.397 278.244 454.712 281.397 451.919 283.641C449.18 285.885 447.569 286.206 446.495 286.42C445.421 286.58 443.864 285.404 445.529 283.588C447.032 281.931 449.61 280.488 451.973 276.908C453.691 274.29 454.551 272.206 453.906 272.313C453.262 272.42 452.403 274.023 449.986 275.359C447.73 276.641 444.723 276.534 444.079 275.198C443.488 273.809 443.649 274.023 445.744 272.366Z" fill="#FFCBCA"/>
<path d="M447.945 159.243C443.488 161.38 442.682 167.419 444.991 174.419C447.301 181.419 453.691 195.579 455.249 200.976C456.752 206.373 458.793 210.221 458.793 210.221C458.793 210.221 469.641 211.022 476.031 204.076C476.031 204.076 471.52 187.778 465.774 175.381C460.082 163.037 456.054 155.396 447.945 159.243Z" fill="#2940D3"/>
<path d="M342.371 257.458L375.183 238.595C375.774 238.274 376.472 238.274 377.062 238.595L434.738 271.672L400.96 291.069L342.371 257.458Z" fill="#F5F5F7" fill-opacity="0.57"/>
<path d="M401.231 288.291L418.953 278.138L367.184 248.374L349.355 258.473L401.231 288.291Z" fill="url(#paint27_linear_2_307063)"/>
<path d="M409.926 260.023L409.604 260.237L400.958 265.206L385.491 256.336L385.169 256.175L394.191 250.992L409.926 260.023Z" fill="#AEB5B7"/>
<path d="M409.605 260.237L400.959 265.206L385.493 256.336L394.193 251.366L409.605 260.237Z" fill="url(#paint28_linear_2_307063)"/>
<path d="M434.738 271.672V272.42C434.738 273.542 434.148 274.611 433.181 275.145L402.571 292.726C402.087 292.993 401.55 293.153 400.96 293.153C400.423 293.153 399.886 292.993 399.402 292.726L344.036 260.931C343.069 260.344 342.425 259.328 342.425 258.206V257.458L400.96 291.069L434.738 271.672Z" fill="#D6D3C4"/>
<path d="M400.961 291.069V293.153C400.424 293.153 399.887 292.993 399.404 292.726L344.037 260.931C343.07 260.344 342.426 259.328 342.426 258.206V257.458L400.961 291.069Z" fill="#D6D3C4"/>
<path d="M400.047 291.55C398.973 291.977 397.791 291.87 396.825 291.282L341.673 259.595C340.706 259.061 340.062 258.099 339.847 256.977L333.832 221.175C333.779 220.961 333.779 220.747 333.779 220.587C333.779 219.572 334.155 218.61 334.906 217.915L392.153 250.831C392.851 251.259 393.388 251.954 393.495 252.755L400.047 291.55Z" fill="#F5F5F7" fill-opacity="0.57"/>
<path d="M400.961 291.069L400.585 291.283C400.424 291.389 400.263 291.443 400.048 291.55L393.55 252.809C393.389 252.007 392.906 251.313 392.208 250.885L334.908 217.969C335.122 217.755 335.391 217.541 335.659 217.381L393.067 250.351C393.765 250.778 394.302 251.473 394.409 252.274L400.961 291.069Z" fill="#D6D3C4"/>
<path d="M369.006 258.473C368.576 256.068 366.106 252.916 363.421 251.366C360.736 249.816 358.91 250.511 359.339 252.916C359.769 255.32 362.239 258.473 364.924 260.023C367.556 261.572 369.382 260.878 369.006 258.473Z" fill="url(#paint29_linear_2_307063)"/>
<path d="M399.504 107.036C398.698 104.204 399.88 101.104 401.974 99.0739C404.068 96.9899 406.861 95.8677 409.761 95.2265C416.85 93.57 435.484 94.2647 433.497 105.433C432.477 110.99 400.309 109.868 399.504 107.036Z" fill="url(#paint30_linear_2_307063)"/>
<path d="M440.748 116.922C438.278 118.952 436.613 121.998 436.291 125.151C435.754 125.151 435.163 125.151 434.626 125.204C434.734 123.013 434.572 121.036 434.626 118.845C431.511 115.319 430.061 110.403 431.082 105.861C431.511 103.99 432.585 101.906 434.519 101.746C436.452 101.586 437.902 103.456 438.708 105.166C440.426 108.853 441.232 112.967 440.748 116.922Z" fill="url(#paint31_linear_2_307063)"/>
<path d="M424.799 100.463L418.838 94.5852L430.76 91.5928L445.636 100.463L451.543 115.265L448.589 124.135L436.721 121.196L430.76 103.456L424.799 100.463Z" fill="url(#paint32_linear_2_307063)"/>
<path d="M437.205 132.631C437.205 132.631 437.688 133.754 439.729 133.86C443.595 134.074 448.106 126.914 444.991 122.105C443.058 119.112 438.655 120.127 437.258 121.944L437.205 132.631Z" fill="#FFCBCA"/>
<defs>
<filter id="filter0_d_2_307063" x="189.387" y="172.27" width="398.43" height="343.711" filterUnits="userSpaceOnUse" color-interpolation-filters="sRGB">
<feFlood flood-opacity="0" result="BackgroundImageFix"/>
<feColorMatrix in="SourceAlpha" type="matrix" values="0 0 0 0 0 0 0 0 0 0 0 0 0 0 0 0 0 0 127 0" result="hardAlpha"/>
<feOffset dy="4"/>
<feGaussianBlur stdDeviation="15"/>
<feComposite in2="hardAlpha" operator="out"/>
<feColorMatrix type="matrix" values="0 0 0 0 1 0 0 0 0 1 0 0 0 0 1 0 0 0 0.05 0"/>
<feBlend mode="normal" in2="BackgroundImageFix" result="effect1_dropShadow_2_307063"/>
<feBlend mode="normal" in="SourceGraphic" in2="effect1_dropShadow_2_307063" result="shape"/>
</filter>
<linearGradient id="paint0_linear_2_307063" x1="719.031" y1="468.002" x2="696.047" y2="467.765" gradientUnits="userSpaceOnUse">
<stop stop-color="#D177A5"/>
<stop offset="0.487926" stop-color="#7A70E1"/>
<stop offset="1" stop-color="#7EA9C2"/>
</linearGradient>
<linearGradient id="paint1_linear_2_307063" x1="673.059" y1="400.096" x2="537.352" y2="398.692" gradientUnits="userSpaceOnUse">
<stop stop-color="#D177A5"/>
<stop offset="0.487926" stop-color="#7A70E1"/>
<stop offset="1" stop-color="#7EA9C2"/>
</linearGradient>
<linearGradient id="paint2_linear_2_307063" x1="693.738" y1="435.837" x2="679.937" y2="435.694" gradientUnits="userSpaceOnUse">
<stop stop-color="#D177A5"/>
<stop offset="0.487926" stop-color="#7A70E1"/>
<stop offset="1" stop-color="#7EA9C2"/>
</linearGradient>
<linearGradient id="paint3_linear_2_307063" x1="656.953" y1="384.229" x2="560.342" y2="383.229" gradientUnits="userSpaceOnUse">
<stop stop-color="#D177A5"/>
<stop offset="0.487926" stop-color="#7A70E1"/>
<stop offset="1" stop-color="#7EA9C2"/>
</linearGradient>
<linearGradient id="paint4_linear_2_307063" x1="600.078" y1="420.531" x2="577.093" y2="420.293" gradientUnits="userSpaceOnUse">
<stop stop-color="#D177A5"/>
<stop offset="0.487926" stop-color="#7A70E1"/>
<stop offset="1" stop-color="#7EA9C2"/>
</linearGradient>
<linearGradient id="paint5_linear_2_307063" x1="105.594" y1="319.824" x2="82.5554" y2="319.586" gradientUnits="userSpaceOnUse">
<stop stop-color="#D177A5"/>
<stop offset="0.487926" stop-color="#7A70E1"/>
<stop offset="1" stop-color="#7EA9C2"/>
</linearGradient>
<linearGradient id="paint6_linear_2_307063" x1="264.285" y1="369.53" x2="128.579" y2="368.125" gradientUnits="userSpaceOnUse">
<stop stop-color="#D177A5"/>
<stop offset="0.487926" stop-color="#7A70E1"/>
<stop offset="1" stop-color="#7EA9C2"/>
</linearGradient>
<linearGradient id="paint7_linear_2_307063" x1="121.656" y1="311.457" x2="107.855" y2="311.315" gradientUnits="userSpaceOnUse">
<stop stop-color="#D177A5"/>
<stop offset="0.487926" stop-color="#7A70E1"/>
<stop offset="1" stop-color="#7EA9C2"/>
</linearGradient>
<linearGradient id="paint8_linear_2_307063" x1="241.246" y1="349.689" x2="144.689" y2="348.69" gradientUnits="userSpaceOnUse">
<stop stop-color="#D177A5"/>
<stop offset="0.487926" stop-color="#7A70E1"/>
<stop offset="1" stop-color="#7EA9C2"/>
</linearGradient>
<linearGradient id="paint9_linear_2_307063" x1="591.867" y1="348.724" x2="215.865" y2="346.912" gradientUnits="userSpaceOnUse">
<stop stop-color="#D177A5"/>
<stop offset="0.487926" stop-color="#7A70E1"/>
<stop offset="1" stop-color="#7EA9C2"/>
</linearGradient>
<linearGradient id="paint10_linear_2_307063" x1="193.027" y1="142.159" x2="181.427" y2="142.105" gradientUnits="userSpaceOnUse">
<stop stop-color="#D177A5"/>
<stop offset="0.487926" stop-color="#7A70E1"/>
<stop offset="1" stop-color="#7EA9C2"/>
</linearGradient>
<linearGradient id="paint11_linear_2_307063" x1="516.582" y1="78.4626" x2="504.981" y2="78.4083" gradientUnits="userSpaceOnUse">
<stop stop-color="#D177A5"/>
<stop offset="0.487926" stop-color="#7A70E1"/>
<stop offset="1" stop-color="#7EA9C2"/>
</linearGradient>
<linearGradient id="paint12_linear_2_307063" x1="641.758" y1="609.935" x2="630.157" y2="609.881" gradientUnits="userSpaceOnUse">
<stop stop-color="#D177A5"/>
<stop offset="0.487926" stop-color="#7A70E1"/>
<stop offset="1" stop-color="#7EA9C2"/>
</linearGradient>
<linearGradient id="paint13_linear_2_307063" x1="735.68" y1="351.662" x2="732.779" y2="351.66" gradientUnits="userSpaceOnUse">
<stop stop-color="#D177A5"/>
<stop offset="0.487926" stop-color="#7A70E1"/>
<stop offset="1" stop-color="#7EA9C2"/>
</linearGradient>
<linearGradient id="paint14_linear_2_307063" x1="742.34" y1="352.729" x2="726.067" y2="352.592" gradientUnits="userSpaceOnUse">
<stop stop-color="#D177A5"/>
<stop offset="0.487926" stop-color="#7A70E1"/>
<stop offset="1" stop-color="#7EA9C2"/>
</linearGradient>
<linearGradient id="paint15_linear_2_307063" x1="65.4844" y1="193.92" x2="62.5813" y2="193.918" gradientUnits="userSpaceOnUse">
<stop stop-color="#D177A5"/>
<stop offset="0.487926" stop-color="#7A70E1"/>
<stop offset="1" stop-color="#7EA9C2"/>
</linearGradient>
<linearGradient id="paint16_linear_2_307063" x1="72.1484" y1="194.987" x2="55.8761" y2="194.849" gradientUnits="userSpaceOnUse">
<stop stop-color="#D177A5"/>
<stop offset="0.487926" stop-color="#7A70E1"/>
<stop offset="1" stop-color="#7EA9C2"/>
</linearGradient>
<linearGradient id="paint17_linear_2_307063" x1="366.586" y1="6.83422" x2="363.683" y2="6.83158" gradientUnits="userSpaceOnUse">
<stop stop-color="#D177A5"/>
<stop offset="0.487926" stop-color="#7A70E1"/>
<stop offset="1" stop-color="#7EA9C2"/>
</linearGradient>
<linearGradient id="paint18_linear_2_307063" x1="373.246" y1="7.95498" x2="356.974" y2="7.81724" gradientUnits="userSpaceOnUse">
<stop stop-color="#D177A5"/>
<stop offset="0.487926" stop-color="#7A70E1"/>
<stop offset="1" stop-color="#7EA9C2"/>
</linearGradient>
<linearGradient id="paint19_linear_2_307063" x1="686.922" y1="238.571" x2="515.115" y2="237.553" gradientUnits="userSpaceOnUse">
<stop stop-color="#D177A5"/>
<stop offset="0.487926" stop-color="#7A70E1"/>
<stop offset="1" stop-color="#7EA9C2"/>
</linearGradient>
<linearGradient id="paint20_linear_2_307063" x1="682.629" y1="241.029" x2="510.822" y2="240.011" gradientUnits="userSpaceOnUse">
<stop stop-color="#D177A5"/>
<stop offset="0.487926" stop-color="#7A70E1"/>
<stop offset="1" stop-color="#7EA9C2"/>
</linearGradient>
<linearGradient id="paint21_linear_2_307063" x1="674.891" y1="244.448" x2="503.084" y2="243.431" gradientUnits="userSpaceOnUse">
<stop stop-color="#D177A5"/>
<stop offset="0.487926" stop-color="#7A70E1"/>
<stop offset="1" stop-color="#7EA9C2"/>
</linearGradient>
<linearGradient id="paint22_linear_2_307063" x1="607.332" y1="240.446" x2="521.998" y2="239.623" gradientUnits="userSpaceOnUse">
<stop stop-color="#D177A5"/>
<stop offset="0.487926" stop-color="#7A70E1"/>
<stop offset="1" stop-color="#7EA9C2"/>
</linearGradient>
<linearGradient id="paint23_linear_2_307063" x1="607.332" y1="254.324" x2="521.998" y2="253.503" gradientUnits="userSpaceOnUse">
<stop stop-color="#D177A5"/>
<stop offset="0.487926" stop-color="#7A70E1"/>
<stop offset="1" stop-color="#7EA9C2"/>
</linearGradient>
<linearGradient id="paint24_linear_2_307063" x1="841" y1="270.089" x2="737.183" y2="269.763" gradientUnits="userSpaceOnUse">
<stop stop-color="#D177A5"/>
<stop offset="0.487926" stop-color="#7A70E1"/>
<stop offset="1" stop-color="#7EA9C2"/>
</linearGradient>
<linearGradient id="paint25_linear_2_307063" x1="110.707" y1="106.482" x2="0.986035" y2="106.115" gradientUnits="userSpaceOnUse">
<stop stop-color="#D177A5"/>
<stop offset="0.487926" stop-color="#7A70E1"/>
<stop offset="1" stop-color="#7EA9C2"/>
</linearGradient>
<linearGradient id="paint26_linear_2_307063" x1="452.328" y1="107.914" x2="404.075" y2="107.624" gradientUnits="userSpaceOnUse">
<stop stop-color="#D177A5"/>
<stop offset="0.487926" stop-color="#7A70E1"/>
<stop offset="1" stop-color="#7EA9C2"/>
</linearGradient>
<linearGradient id="paint27_linear_2_307063" x1="418.953" y1="262.719" x2="349.355" y2="261.998" gradientUnits="userSpaceOnUse">
<stop stop-color="#D177A5"/>
<stop offset="0.487926" stop-color="#7A70E1"/>
<stop offset="1" stop-color="#7EA9C2"/>
</linearGradient>
<linearGradient id="paint28_linear_2_307063" x1="409.605" y1="256.34" x2="385.493" y2="256.09" gradientUnits="userSpaceOnUse">
<stop stop-color="#D177A5"/>
<stop offset="0.487926" stop-color="#7A70E1"/>
<stop offset="1" stop-color="#7EA9C2"/>
</linearGradient>
<linearGradient id="paint29_linear_2_307063" x1="369.055" y1="254.245" x2="359.276" y2="254.19" gradientUnits="userSpaceOnUse">
<stop stop-color="#D177A5"/>
<stop offset="0.487926" stop-color="#7A70E1"/>
<stop offset="1" stop-color="#7EA9C2"/>
</linearGradient>
<linearGradient id="paint30_linear_2_307063" x1="433.645" y1="99.8817" x2="399.252" y2="99.4075" gradientUnits="userSpaceOnUse">
<stop stop-color="#D177A5"/>
<stop offset="0.487926" stop-color="#7A70E1"/>
<stop offset="1" stop-color="#7EA9C2"/>
</linearGradient>
<linearGradient id="paint31_linear_2_307063" x1="440.887" y1="110.17" x2="430.757" y2="110.144" gradientUnits="userSpaceOnUse">
<stop stop-color="#D177A5"/>
<stop offset="0.487926" stop-color="#7A70E1"/>
<stop offset="1" stop-color="#7EA9C2"/>
</linearGradient>
<linearGradient id="paint32_linear_2_307063" x1="451.543" y1="103.288" x2="418.836" y2="103.092" gradientUnits="userSpaceOnUse">
<stop stop-color="#D177A5"/>
<stop offset="0.487926" stop-color="#7A70E1"/>
<stop offset="1" stop-color="#7EA9C2"/>
</linearGradient>
</defs>
</svg>
