<svg width="180" height="38" viewBox="0 0 180 38" fill="none" xmlns="http://www.w3.org/2000/svg">
<path d="M10.455 29.438C16.113 29.438 19.762 26.24 20.172 22.058H14.186C13.899 23.903 12.341 24.928 10.455 24.928C7.913 24.928 6.068 22.878 6.027 20.049H20.295V18.901C20.295 12.259 16.646 7.913 10.332 7.913C4.264 7.913 0 12.177 0 18.614C0 25.584 4.387 29.438 10.455 29.438ZM5.986 16.154C6.232 13.858 7.913 12.177 10.291 12.177C12.587 12.177 14.186 13.776 14.227 16.154H5.986Z" fill="#D4DBFC"/>
<path d="M31.9633 29.438C35.3663 29.438 37.2113 27.634 38.0313 26.158C37.9083 26.855 37.9083 27.347 37.9083 28.003V28.7H43.8533V0H37.9083V9.225C37.9083 9.881 37.9083 10.455 38.0313 11.234C36.9653 9.471 34.9973 7.913 31.9633 7.913C27.3713 7.913 22.9433 11.439 22.9433 18.696C22.9433 25.871 26.8383 29.438 31.9633 29.438ZM33.6443 24.846C30.9793 24.846 29.0113 22.427 29.0113 18.696C29.0113 15.006 30.9793 12.546 33.6443 12.546C36.3093 12.546 38.2363 14.924 38.2363 18.696C38.2363 22.345 36.3093 24.846 33.6443 24.846Z" fill="#D4DBFC"/>
<path d="M57.8203 37.761C63.9703 37.761 68.2342 34.481 68.2342 27.675V8.61H62.2892V9.225C62.2892 9.963 62.3302 10.496 62.4533 11.234C61.3463 9.348 59.4193 7.913 56.1393 7.913C51.7523 7.913 47.4883 11.521 47.4883 17.958C47.4883 24.436 51.1782 27.962 56.3442 27.962C59.2552 27.962 61.3052 26.527 62.4533 24.805C62.3302 25.584 62.2892 26.322 62.2892 27.142V29.069C62.2892 31.775 60.3622 33.21 57.9842 33.21C55.5243 33.21 54.2533 31.939 54.1712 29.807H48.1852C48.2262 34.481 51.6702 37.761 57.8203 37.761ZM58.1073 23.329C55.4012 23.329 53.5153 21.115 53.5153 17.958C53.5153 14.76 55.4012 12.546 58.1073 12.546C60.7723 12.546 62.6583 14.76 62.6583 17.958C62.6583 21.156 60.7723 23.329 58.1073 23.329Z" fill="#D4DBFC"/>
<path d="M82.245 29.438C87.903 29.438 91.552 26.24 91.962 22.058H85.976C85.689 23.903 84.131 24.928 82.245 24.928C79.703 24.928 77.858 22.878 77.817 20.049H92.085V18.901C92.085 12.259 88.436 7.913 82.122 7.913C76.054 7.913 71.79 12.177 71.79 18.614C71.79 25.584 76.177 29.438 82.245 29.438ZM77.776 16.154C78.022 13.858 79.703 12.177 82.081 12.177C84.377 12.177 85.976 13.776 86.017 16.154H77.776Z" fill="#D4DBFC"/>
<path d="M107.456 28.7L114.59 8.61H108.481L104.668 20.5C104.381 21.484 104.176 22.263 103.971 23.288C103.725 22.263 103.561 21.484 103.192 20.5L99.3789 8.61H92.9829L100.486 28.7H107.456Z" fill="#D4DBFC"/>
<path d="M122.604 29.438C125.884 29.438 127.975 28.085 129.041 26.117C128.918 26.732 128.877 27.347 128.877 27.962V28.7H134.371V16.851C134.371 11.193 131.788 7.913 125.474 7.913C120.021 7.913 116.454 10.947 116.126 15.129H122.153C122.358 13.284 123.67 12.177 125.679 12.177C127.565 12.177 128.59 13.243 128.59 14.473C128.59 15.375 128.057 15.908 126.458 16.113L123.588 16.441C119.324 16.974 115.675 18.532 115.675 23.042C115.675 27.142 119.078 29.438 122.604 29.438ZM124.449 25.215C122.85 25.215 121.661 24.313 121.661 22.755C121.661 21.238 123.014 20.5 125.064 20.131L126.458 19.885C127.647 19.639 128.303 19.434 128.713 19.065V20.951C128.713 23.493 126.868 25.215 124.449 25.215Z" fill="#D4DBFC"/>
<path d="M144.704 28.7V16.933C144.704 14.432 146.262 12.587 148.476 12.587C150.567 12.587 151.797 14.186 151.797 16.851V28.7H157.742V15.99C157.742 11.152 155.2 7.913 150.649 7.913C147.492 7.913 145.565 9.43 144.54 11.234C144.663 10.496 144.704 9.922 144.704 9.389V8.61H138.759V28.7H144.704Z" fill="#D4DBFC"/>
<path d="M168.168 29.438C171.448 29.438 173.539 28.085 174.605 26.117C174.482 26.732 174.441 27.347 174.441 27.962V28.7H179.935V16.851C179.935 11.193 177.352 7.913 171.038 7.913C165.585 7.913 162.018 10.947 161.69 15.129H167.717C167.922 13.284 169.234 12.177 171.243 12.177C173.129 12.177 174.154 13.243 174.154 14.473C174.154 15.375 173.621 15.908 172.022 16.113L169.152 16.441C164.888 16.974 161.239 18.532 161.239 23.042C161.239 27.142 164.642 29.438 168.168 29.438ZM170.013 25.215C168.414 25.215 167.225 24.313 167.225 22.755C167.225 21.238 168.578 20.5 170.628 20.131L172.022 19.885C173.211 19.639 173.867 19.434 174.277 19.065V20.951C174.277 23.493 172.432 25.215 170.013 25.215Z" fill="#D4DBFC"/>
</svg>
