<svg width="462" height="543" viewBox="0 0 462 543" fill="none" xmlns="http://www.w3.org/2000/svg">
<path d="M126.677 196.767L107.061 182.706L155.385 189.21L126.677 196.767Z" fill="url(#paint0_linear_6_34607)" stroke="url(#paint1_linear_6_34607)" stroke-width="0.864" stroke-miterlimit="10"/>
<path d="M234.853 12.8616L247.216 19.4122L218.955 19.4323L234.853 12.8616Z" fill="url(#paint2_linear_6_34607)" stroke="url(#paint3_linear_6_34607)" stroke-width="0.501" stroke-miterlimit="10"/>
<path d="M181.677 135.07L151.133 116.888L176.929 117.191L181.677 135.07Z" fill="url(#paint4_linear_6_34607)" stroke="url(#paint5_linear_6_34607)" stroke-width="1.343" stroke-miterlimit="10"/>
<path d="M187.726 117.242L173.73 99.109L178.062 115.074L187.726 117.242Z" fill="url(#paint6_linear_6_34607)" stroke="url(#paint7_linear_6_34607)" stroke-width="0.864" stroke-miterlimit="10"/>
<path d="M200.824 58.2582L233.604 38.131L204.236 47.5384L200.824 58.2582Z" fill="url(#paint8_linear_6_34607)" stroke="url(#paint9_linear_6_34607)" stroke-width="0.864" stroke-miterlimit="10"/>
<path d="M265.361 121.581L270.398 92.2611L261.568 115.274L265.361 121.581Z" fill="url(#paint10_linear_6_34607)" stroke="url(#paint11_linear_6_34607)" stroke-width="0.937" stroke-miterlimit="10"/>
<path d="M171.738 167.14L196.37 155.065L174.401 160.899L171.738 167.14Z" fill="url(#paint12_linear_6_34607)" stroke="url(#paint13_linear_6_34607)" stroke-width="0.864" stroke-miterlimit="10"/>
<path d="M293.626 67.1143L277.979 41.8081L286.606 64.9024L293.626 67.1143Z" fill="url(#paint14_linear_6_34607)" stroke="url(#paint15_linear_6_34607)" stroke-width="0.937" stroke-miterlimit="10"/>
<path d="M277.554 35.205L251.498 65.6543L277.016 43.2475L277.554 35.205Z" fill="url(#paint16_linear_6_34607)" stroke="url(#paint17_linear_6_34607)" stroke-width="0.937" stroke-miterlimit="10"/>
<path d="M221.478 131.779L252.714 118.267L203.229 116.618L221.478 131.779Z" fill="url(#paint18_linear_6_34607)" stroke="url(#paint19_linear_6_34607)" stroke-width="1.392" stroke-miterlimit="10"/>
<path d="M197.933 155.201L220.113 137.214L197.578 190.329L197.933 155.201Z" fill="url(#paint20_linear_6_34607)" stroke="url(#paint21_linear_6_34607)" stroke-width="1.022" stroke-miterlimit="10"/>
<path d="M110.789 156.362L126.597 141.143L122.207 156.454L110.789 156.362Z" fill="url(#paint22_linear_6_34607)" stroke="url(#paint23_linear_6_34607)" stroke-width="0.829" stroke-miterlimit="10"/>
<path d="M155.582 188.801L125.652 217.866L154.507 200.954L155.582 188.801Z" fill="url(#paint24_linear_6_34607)" stroke="url(#paint25_linear_6_34607)" stroke-width="0.937" stroke-miterlimit="10"/>
<path d="M91.4062 268.174L111.283 277.474L96.6346 266.707L91.4062 268.174Z" fill="url(#paint26_linear_6_34607)" stroke="url(#paint27_linear_6_34607)" stroke-width="0.691" stroke-miterlimit="10"/>
<path d="M105.082 145.977L94.0957 169.908L106.888 152.237L105.082 145.977Z" fill="url(#paint28_linear_6_34607)" stroke="url(#paint29_linear_6_34607)" stroke-width="0.829" stroke-miterlimit="10"/>
<path d="M288.126 119.555L271.777 140.197L288.4 126.065L288.126 119.555Z" fill="url(#paint30_linear_6_34607)" stroke="url(#paint31_linear_6_34607)" stroke-width="0.829" stroke-miterlimit="10"/>
<path d="M145.547 235.018L151.116 264.244L151.311 239.596L145.547 235.018Z" fill="url(#paint32_linear_6_34607)" stroke="url(#paint33_linear_6_34607)" stroke-width="0.937" stroke-miterlimit="10"/>
<path d="M144.756 233.397L113.766 258.807L142.818 241.221L144.756 233.397Z" fill="url(#paint34_linear_6_34607)" stroke="url(#paint35_linear_6_34607)" stroke-width="0.937" stroke-miterlimit="10"/>
<path d="M66.7266 196.321L84.7312 205.632L66.8385 182.191L66.7266 196.321Z" fill="url(#paint36_linear_6_34607)" stroke="url(#paint37_linear_6_34607)" stroke-width="0.829" stroke-miterlimit="10"/>
<path d="M91.5878 134.652L90.4434 118.997L107.317 145.849L91.5878 134.652Z" fill="url(#paint38_linear_6_34607)" stroke="url(#paint39_linear_6_34607)" stroke-width="0.562" stroke-miterlimit="10"/>
<path d="M232.045 152.009L236.61 136.99L242.694 168.116L232.045 152.009Z" fill="url(#paint40_linear_6_34607)" stroke="url(#paint41_linear_6_34607)" stroke-width="0.562" stroke-miterlimit="10"/>
<path d="M63.8574 80.6626L74.5697 70.3496L71.5951 80.7244L63.8574 80.6626Z" fill="url(#paint42_linear_6_34607)" stroke="url(#paint43_linear_6_34607)" stroke-width="0.562" stroke-miterlimit="10"/>
<path d="M69.127 86.4688L82.9099 80.807L72.1508 80.7794L69.127 86.4688Z" fill="url(#paint44_linear_6_34607)" stroke="url(#paint45_linear_6_34607)" stroke-width="0.562" stroke-miterlimit="10"/>
<path d="M105.944 74.645L87.9961 92.0758L105.301 81.9333L105.944 74.645Z" fill="url(#paint46_linear_6_34607)" stroke="url(#paint47_linear_6_34607)" stroke-width="0.562" stroke-miterlimit="10"/>
<path d="M57.1992 127.469L73.3611 135.031L61.4502 126.276L57.1992 127.469Z" fill="url(#paint48_linear_6_34607)" stroke="url(#paint49_linear_6_34607)" stroke-width="0.562" stroke-miterlimit="10"/>
<path d="M71.2891 44.9482L74.6304 62.4767L74.7473 47.6915L71.2891 44.9482Z" fill="url(#paint50_linear_6_34607)" stroke="url(#paint51_linear_6_34607)" stroke-width="0.562" stroke-miterlimit="10"/>
<path d="M133.26 116.339L136.601 133.868L136.718 119.083L133.26 116.339Z" fill="url(#paint52_linear_6_34607)" stroke="url(#paint53_linear_6_34607)" stroke-width="0.562" stroke-miterlimit="10"/>
<path d="M10.0137 136.928L13.355 154.456L13.4719 139.671L10.0137 136.928Z" fill="url(#paint54_linear_6_34607)" stroke="url(#paint55_linear_6_34607)" stroke-width="0.562" stroke-miterlimit="10"/>
<path d="M224.475 74.0779L211.959 91.5922L217.698 48.481L224.475 74.0779Z" fill="url(#paint56_linear_6_34607)" stroke="url(#paint57_linear_6_34607)" stroke-width="0.77" stroke-miterlimit="10"/>
<path d="M170.357 81.1572L193.412 71.4407L173.601 74.6007L170.357 81.1572Z" fill="url(#paint58_linear_6_34607)" stroke="url(#paint59_linear_6_34607)" stroke-width="0.562" stroke-miterlimit="10"/>
<path d="M165.783 18.7716L164.206 1L162.619 15.6967L165.783 18.7716Z" fill="url(#paint60_linear_6_34607)" stroke="url(#paint61_linear_6_34607)" stroke-width="0.562" stroke-miterlimit="10"/>
<path d="M141.605 58.5041L124.848 52.3728L137.474 60.0578L141.605 58.5041Z" fill="url(#paint62_linear_6_34607)" stroke="url(#paint63_linear_6_34607)" stroke-width="0.562" stroke-miterlimit="10"/>
<path d="M18.3239 67.8137L1 72.0864L15.7669 71.4106L18.3239 67.8137Z" fill="url(#paint64_linear_6_34607)" stroke="url(#paint65_linear_6_34607)" stroke-width="0.562" stroke-miterlimit="10"/>
<path d="M291.838 70.8553L315.752 68.4554L295.404 67.5908L291.838 70.8553Z" fill="url(#paint66_linear_6_34607)" stroke="url(#paint67_linear_6_34607)" stroke-width="0.562" stroke-miterlimit="10"/>
<path d="M243.203 86.51L255.404 92.8192L243.279 76.9313L243.203 86.51Z" fill="url(#paint68_linear_6_34607)" stroke="url(#paint69_linear_6_34607)" stroke-width="0.562" stroke-miterlimit="10"/>
<path style="mix-blend-mode:screen" d="M284.457 131.025C295.396 120.086 295.899 102.853 285.58 92.5341C275.261 82.2153 258.028 82.7183 247.089 93.6576C236.149 104.597 235.646 121.83 245.965 132.149C256.284 142.468 273.517 141.965 284.457 131.025Z" fill="url(#paint70_radial_6_34607)"/>
<path style="mix-blend-mode:screen" d="M254.789 157.998C265.728 147.058 266.231 129.825 255.912 119.506C245.593 109.187 228.36 109.69 217.421 120.63C206.481 131.569 205.978 148.802 216.297 159.121C226.616 169.44 243.849 168.937 254.789 157.998Z" fill="url(#paint71_radial_6_34607)"/>
<path style="mix-blend-mode:screen" d="M233.212 174.181C244.152 163.242 244.655 146.008 234.336 135.69C224.017 125.371 206.784 125.874 195.844 136.813C184.905 147.752 184.402 164.985 194.721 175.304C205.04 185.623 222.273 185.12 233.212 174.181Z" fill="url(#paint72_radial_6_34607)"/>
<path style="mix-blend-mode:screen" d="M207.589 197.107C218.529 186.168 219.032 168.935 208.713 158.616C198.394 148.297 181.161 148.8 170.221 159.739C159.282 170.678 158.779 187.912 169.098 198.23C179.417 208.549 196.65 208.046 207.589 197.107Z" fill="url(#paint73_radial_6_34607)"/>
<path style="mix-blend-mode:screen" d="M195.451 226.776C206.39 215.837 206.893 198.604 196.574 188.285C186.255 177.966 169.022 178.469 158.083 189.408C147.143 200.348 146.64 217.581 156.959 227.9C167.278 238.219 184.511 237.716 195.451 226.776Z" fill="url(#paint74_radial_6_34607)"/>
<path style="mix-blend-mode:screen" d="M223.773 151.254C234.712 140.315 235.215 123.082 224.896 112.763C214.578 102.444 197.344 102.947 186.405 113.886C175.466 124.826 174.963 142.059 185.282 152.378C195.6 162.697 212.834 162.194 223.773 151.254Z" fill="url(#paint75_radial_6_34607)"/>
<path style="mix-blend-mode:screen" d="M198.148 106.75C209.087 95.8111 209.59 78.578 199.271 68.2591C188.953 57.9403 171.719 58.4432 160.78 69.3826C149.841 80.3219 149.338 97.555 159.657 107.874C169.975 118.193 187.209 117.69 198.148 106.75Z" fill="url(#paint76_radial_6_34607)"/>
<path d="M285.361 420.938L277.927 411.158L273.623 398.248L273.232 383.38L274.015 369.688L277.536 355.604L283.795 339.566L292.792 326.265L304.138 311.396L316.657 301.225L328.784 289.88L342.868 277.362L352.648 268.758L362.82 257.804L371.818 246.85L378.86 231.982L380.029 217.898L376.899 200.685L370.64 188.558L360.864 178.39L347.563 169.001L333.871 164.307L321.744 163.137L305.313 163.92L290.839 165.876L277.146 175.265L266.192 185.041L257.977 199.91L252.109 213.211L245.85 229.249L240.372 242.55L231.768 252.721L220.032 258.98L205.558 259.371L193.038 255.85L184.039 250.763L175.435 240.591L170.74 227.681L171.131 215.424L188.344 213.859L182.085 210.729L196.69 206.035L193.038 194.038L186.779 185.171L200.341 191.43V184.127L218.595 187.779L209.728 162.218L225.377 163.262L219.117 151.265L236.33 151.786L234.242 128.313L243.109 138.224L244.673 130.921L254.063 134.572L264.495 133.008L274.927 139.267L268.146 121.011L275.188 122.445L274.405 109.144L283.794 114.23L290.445 105.626L302.964 103.278L317.048 103.669L337 103.278L351.083 105.626L363.993 107.973L376.512 111.103L388.249 115.407L399.985 120.101L412.504 127.926L418.763 134.185L429.326 142.789L437.541 152.178L445.754 166.654L453.579 181.523L458.664 198.736L460.621 215.949L460.231 226.121L458.275 240.595L449.278 264.068L438.715 278.152L425.023 296.147L414.46 305.927L400.377 317.272L388.25 329.008L374.166 340.744L363.212 351.698L355.389 361.478L349.129 373.996L346.782 386.124L344.044 397.468L341.306 408.031L336.22 416.246L328.786 422.897L320.961 426.418L309.617 427.983L295.925 426.026L285.361 420.938Z" stroke="url(#paint77_linear_6_34607)" stroke-width="0.937" stroke-miterlimit="10"/>
<path d="M281.713 532.041L290.059 537.257L301.535 541.434L314.053 541.955L329.18 538.825L336.482 534.13L345.871 526.306L350.566 517.96L355.261 504.399L355.782 489.272L351.087 474.145L339.09 462.669L323.442 454.844L307.794 454.323L290.581 460.061L277.541 470.493L271.282 482.49L268.674 493.966L270.238 509.614L274.415 521.611L281.713 532.041Z" stroke="url(#paint78_linear_6_34607)" stroke-width="0.937" stroke-miterlimit="10"/>
<path d="M301.529 541.43L351.083 474.143L277.536 470.492L345.865 526.304L274.405 521.61L351.081 474.143L355.258 504.396L325.262 508.963L307.788 454.324L339.084 462.67L297.095 485.881L351.081 474.145L344.039 505.833L345.864 526.306L314.046 541.954L314.698 524.219L311.568 498.008L268.666 493.966L274.404 521.615L297.094 485.885L271.274 482.494L307.787 454.327L297.095 485.884L355.254 504.402L339.084 462.673L301.398 471.019L268.667 493.969L314.699 524.222L344.04 505.835L329.171 538.831L290.05 537.266L293.18 509.36L325.257 508.969L344.035 505.839L344.818 501.536L320.563 472.195L323.432 454.851L301.393 471.021L290.57 460.068L297.09 485.888L293.178 509.36L270.227 509.621L297.091 485.888L314.695 524.229L281.7 532.053L274.397 521.62L290.045 537.269L304.129 537.529L293.175 509.362L314.692 524.231L329.166 538.836L330.927 514.451H352.248L344.033 505.847L333.861 498.023L331.709 485.896L339.077 462.685L320.56 472.207L301.391 471.038L311.563 498.032L293.176 509.376L284.572 531.283L301.529 541.43Z" stroke="url(#paint79_linear_6_34607)" stroke-width="0.937" stroke-miterlimit="10"/>
<path d="M277.928 411.158L349.128 373.994L360.474 261.327L449.277 264.065L412.504 127.925L290.838 165.872L290.447 105.626L363.995 107.973L333.871 164.307L274.929 139.269L247.024 224.556L196.689 206.04L184.038 250.763L240.372 242.548L236.33 151.788L290.838 165.871L218.595 187.779L247.023 224.553L220.029 258.979L196.687 206.036L218.595 187.779L236.33 151.788L274.929 139.269L290.447 105.626L340.913 148.658L360.865 178.39L412.504 127.925L290.447 105.626L274.929 139.269L340.913 148.658L337.001 103.278L290.838 165.872L225.376 163.264L266.192 185.041L184.038 250.763L171.128 215.424L207.119 231.594L205.555 259.367L240.372 242.545L207.119 231.591L218.595 187.779L266.192 185.041L254.065 134.576L236.33 151.788L290.838 165.872L275.19 122.448L340.913 148.659L290.838 165.872L225.376 163.264L213.379 170.567L218.595 187.779L200.335 191.431L193.032 194.038L214.94 200.298L188.338 213.859L171.125 215.424L207.116 231.594L247.019 224.552L266.189 185.041L290.831 165.872L315.085 162.742L333.871 164.307L347.563 169.001L453.58 181.52L378.859 231.986L449.277 264.062L459.057 234.725L360.864 178.39L363.994 107.972L424.631 176.825L376.904 200.688L449.277 264.064L425.023 296.14L378.86 231.982L459.057 234.721L453.58 181.516L412.504 127.921L388.64 194.034L458.666 198.729L398.028 219.856L424.63 176.823L437.54 152.181L340.912 148.66L388.639 194.04L398.028 219.86L380.033 217.904L378.863 231.987V260.546L425.026 296.145L355.782 302.796L378.863 260.546L388.252 329.007L304.143 311.403L355.782 302.799L337.004 280.892L304.139 395.901L354.214 322.351L366.732 346.609L384.727 298.878L449.277 264.061L401.162 262.104L414.463 233.155L437.15 222.988L458.666 198.733L459.057 234.724L401.159 262.108L371.818 246.851L414.46 233.159L425.023 296.143L402.723 313.747L384.727 298.878L401.158 262.104L355.778 302.79L348.737 272.275L384.727 298.878L354.213 322.351L283.795 339.563L304.138 395.897L328.78 422.891L332.301 352.864L366.727 346.605L354.214 322.351L322.917 329.392L332.306 352.865L283.796 339.564L273.625 398.248L304.139 395.901V311.4L275.19 361.475L349.128 373.993L332.306 352.868L351.863 347.391L329.956 306.706L322.131 294.969L355.775 302.794L339.344 324.701L332.302 352.868L273.625 398.248L303.357 345.044L329.958 306.702L355.778 302.791L388.248 329.001L351.863 347.391L349.125 373.993L328.782 422.894L341.301 408.025L304.139 395.901L342.481 390.424L301.009 426.416L304.139 395.901L273.625 398.248L301.009 426.416L328.785 422.895L277.928 411.158Z" stroke="url(#paint80_linear_6_34607)" stroke-width="0.937" stroke-miterlimit="10"/>
<defs>
<linearGradient id="paint0_linear_6_34607" x1="107.061" y1="187.759" x2="155.37" y2="186.772" gradientUnits="userSpaceOnUse">
<stop stop-color="#D177A5"/>
<stop offset="0.487926" stop-color="#7A70E1"/>
<stop offset="1" stop-color="#7EA9C2"/>
</linearGradient>
<linearGradient id="paint1_linear_6_34607" x1="107.061" y1="187.759" x2="155.37" y2="186.772" gradientUnits="userSpaceOnUse">
<stop stop-color="#D177A5"/>
<stop offset="0.487926" stop-color="#7A70E1"/>
<stop offset="1" stop-color="#7EA9C2"/>
</linearGradient>
<linearGradient id="paint2_linear_6_34607" x1="218.955" y1="15.2229" x2="247.201" y2="14.5006" gradientUnits="userSpaceOnUse">
<stop stop-color="#D177A5"/>
<stop offset="0.487926" stop-color="#7A70E1"/>
<stop offset="1" stop-color="#7EA9C2"/>
</linearGradient>
<linearGradient id="paint3_linear_6_34607" x1="218.955" y1="15.2229" x2="247.201" y2="14.5006" gradientUnits="userSpaceOnUse">
<stop stop-color="#D177A5"/>
<stop offset="0.487926" stop-color="#7A70E1"/>
<stop offset="1" stop-color="#7EA9C2"/>
</linearGradient>
<linearGradient id="paint4_linear_6_34607" x1="151.133" y1="123.422" x2="181.677" y2="123.117" gradientUnits="userSpaceOnUse">
<stop stop-color="#D177A5"/>
<stop offset="0.487926" stop-color="#7A70E1"/>
<stop offset="1" stop-color="#7EA9C2"/>
</linearGradient>
<linearGradient id="paint5_linear_6_34607" x1="151.133" y1="123.422" x2="181.677" y2="123.117" gradientUnits="userSpaceOnUse">
<stop stop-color="#D177A5"/>
<stop offset="0.487926" stop-color="#7A70E1"/>
<stop offset="1" stop-color="#7EA9C2"/>
</linearGradient>
<linearGradient id="paint6_linear_6_34607" x1="173.73" y1="105.626" x2="187.728" y2="105.561" gradientUnits="userSpaceOnUse">
<stop stop-color="#D177A5"/>
<stop offset="0.487926" stop-color="#7A70E1"/>
<stop offset="1" stop-color="#7EA9C2"/>
</linearGradient>
<linearGradient id="paint7_linear_6_34607" x1="173.73" y1="105.626" x2="187.728" y2="105.561" gradientUnits="userSpaceOnUse">
<stop stop-color="#D177A5"/>
<stop offset="0.487926" stop-color="#7A70E1"/>
<stop offset="1" stop-color="#7EA9C2"/>
</linearGradient>
<linearGradient id="paint8_linear_6_34607" x1="200.824" y1="45.3642" x2="233.605" y2="45.0468" gradientUnits="userSpaceOnUse">
<stop stop-color="#D177A5"/>
<stop offset="0.487926" stop-color="#7A70E1"/>
<stop offset="1" stop-color="#7EA9C2"/>
</linearGradient>
<linearGradient id="paint9_linear_6_34607" x1="200.824" y1="45.3642" x2="233.605" y2="45.0468" gradientUnits="userSpaceOnUse">
<stop stop-color="#D177A5"/>
<stop offset="0.487926" stop-color="#7A70E1"/>
<stop offset="1" stop-color="#7EA9C2"/>
</linearGradient>
<linearGradient id="paint10_linear_6_34607" x1="261.568" y1="102.798" x2="270.399" y2="102.782" gradientUnits="userSpaceOnUse">
<stop stop-color="#D177A5"/>
<stop offset="0.487926" stop-color="#7A70E1"/>
<stop offset="1" stop-color="#7EA9C2"/>
</linearGradient>
<linearGradient id="paint11_linear_6_34607" x1="261.568" y1="102.798" x2="270.399" y2="102.782" gradientUnits="userSpaceOnUse">
<stop stop-color="#D177A5"/>
<stop offset="0.487926" stop-color="#7A70E1"/>
<stop offset="1" stop-color="#7EA9C2"/>
</linearGradient>
<linearGradient id="paint12_linear_6_34607" x1="171.738" y1="159.404" x2="196.37" y2="159.105" gradientUnits="userSpaceOnUse">
<stop stop-color="#D177A5"/>
<stop offset="0.487926" stop-color="#7A70E1"/>
<stop offset="1" stop-color="#7EA9C2"/>
</linearGradient>
<linearGradient id="paint13_linear_6_34607" x1="171.738" y1="159.404" x2="196.37" y2="159.105" gradientUnits="userSpaceOnUse">
<stop stop-color="#D177A5"/>
<stop offset="0.487926" stop-color="#7A70E1"/>
<stop offset="1" stop-color="#7EA9C2"/>
</linearGradient>
<linearGradient id="paint14_linear_6_34607" x1="277.979" y1="50.9025" x2="293.627" y2="50.845" gradientUnits="userSpaceOnUse">
<stop stop-color="#D177A5"/>
<stop offset="0.487926" stop-color="#7A70E1"/>
<stop offset="1" stop-color="#7EA9C2"/>
</linearGradient>
<linearGradient id="paint15_linear_6_34607" x1="277.979" y1="50.9025" x2="293.627" y2="50.845" gradientUnits="userSpaceOnUse">
<stop stop-color="#D177A5"/>
<stop offset="0.487926" stop-color="#7A70E1"/>
<stop offset="1" stop-color="#7EA9C2"/>
</linearGradient>
<linearGradient id="paint16_linear_6_34607" x1="251.498" y1="46.1477" x2="277.556" y2="46.0151" gradientUnits="userSpaceOnUse">
<stop stop-color="#D177A5"/>
<stop offset="0.487926" stop-color="#7A70E1"/>
<stop offset="1" stop-color="#7EA9C2"/>
</linearGradient>
<linearGradient id="paint17_linear_6_34607" x1="251.498" y1="46.1477" x2="277.556" y2="46.0151" gradientUnits="userSpaceOnUse">
<stop stop-color="#D177A5"/>
<stop offset="0.487926" stop-color="#7A70E1"/>
<stop offset="1" stop-color="#7EA9C2"/>
</linearGradient>
<linearGradient id="paint18_linear_6_34607" x1="203.229" y1="122.066" x2="252.701" y2="121.106" gradientUnits="userSpaceOnUse">
<stop stop-color="#D177A5"/>
<stop offset="0.487926" stop-color="#7A70E1"/>
<stop offset="1" stop-color="#7EA9C2"/>
</linearGradient>
<linearGradient id="paint19_linear_6_34607" x1="203.229" y1="122.066" x2="252.701" y2="121.106" gradientUnits="userSpaceOnUse">
<stop stop-color="#D177A5"/>
<stop offset="0.487926" stop-color="#7A70E1"/>
<stop offset="1" stop-color="#7EA9C2"/>
</linearGradient>
<linearGradient id="paint20_linear_6_34607" x1="197.578" y1="156.302" x2="220.115" y2="156.245" gradientUnits="userSpaceOnUse">
<stop stop-color="#D177A5"/>
<stop offset="0.487926" stop-color="#7A70E1"/>
<stop offset="1" stop-color="#7EA9C2"/>
</linearGradient>
<linearGradient id="paint21_linear_6_34607" x1="197.578" y1="156.302" x2="220.115" y2="156.245" gradientUnits="userSpaceOnUse">
<stop stop-color="#D177A5"/>
<stop offset="0.487926" stop-color="#7A70E1"/>
<stop offset="1" stop-color="#7EA9C2"/>
</linearGradient>
<linearGradient id="paint22_linear_6_34607" x1="110.789" y1="146.645" x2="126.598" y2="146.548" gradientUnits="userSpaceOnUse">
<stop stop-color="#D177A5"/>
<stop offset="0.487926" stop-color="#7A70E1"/>
<stop offset="1" stop-color="#7EA9C2"/>
</linearGradient>
<linearGradient id="paint23_linear_6_34607" x1="110.789" y1="146.645" x2="126.598" y2="146.548" gradientUnits="userSpaceOnUse">
<stop stop-color="#D177A5"/>
<stop offset="0.487926" stop-color="#7A70E1"/>
<stop offset="1" stop-color="#7EA9C2"/>
</linearGradient>
<linearGradient id="paint24_linear_6_34607" x1="125.652" y1="199.246" x2="155.584" y2="199.063" gradientUnits="userSpaceOnUse">
<stop stop-color="#D177A5"/>
<stop offset="0.487926" stop-color="#7A70E1"/>
<stop offset="1" stop-color="#7EA9C2"/>
</linearGradient>
<linearGradient id="paint25_linear_6_34607" x1="125.652" y1="199.246" x2="155.584" y2="199.063" gradientUnits="userSpaceOnUse">
<stop stop-color="#D177A5"/>
<stop offset="0.487926" stop-color="#7A70E1"/>
<stop offset="1" stop-color="#7EA9C2"/>
</linearGradient>
<linearGradient id="paint26_linear_6_34607" x1="91.4063" y1="270.576" x2="111.283" y2="270.358" gradientUnits="userSpaceOnUse">
<stop stop-color="#D177A5"/>
<stop offset="0.487926" stop-color="#7A70E1"/>
<stop offset="1" stop-color="#7EA9C2"/>
</linearGradient>
<linearGradient id="paint27_linear_6_34607" x1="91.4063" y1="270.576" x2="111.283" y2="270.358" gradientUnits="userSpaceOnUse">
<stop stop-color="#D177A5"/>
<stop offset="0.487926" stop-color="#7A70E1"/>
<stop offset="1" stop-color="#7EA9C2"/>
</linearGradient>
<linearGradient id="paint28_linear_6_34607" x1="94.0957" y1="154.577" x2="106.889" y2="154.537" gradientUnits="userSpaceOnUse">
<stop stop-color="#D177A5"/>
<stop offset="0.487926" stop-color="#7A70E1"/>
<stop offset="1" stop-color="#7EA9C2"/>
</linearGradient>
<linearGradient id="paint29_linear_6_34607" x1="94.0957" y1="154.577" x2="106.889" y2="154.537" gradientUnits="userSpaceOnUse">
<stop stop-color="#D177A5"/>
<stop offset="0.487926" stop-color="#7A70E1"/>
<stop offset="1" stop-color="#7EA9C2"/>
</linearGradient>
<linearGradient id="paint30_linear_6_34607" x1="271.777" y1="126.974" x2="288.402" y2="126.894" gradientUnits="userSpaceOnUse">
<stop stop-color="#D177A5"/>
<stop offset="0.487926" stop-color="#7A70E1"/>
<stop offset="1" stop-color="#7EA9C2"/>
</linearGradient>
<linearGradient id="paint31_linear_6_34607" x1="271.777" y1="126.974" x2="288.402" y2="126.894" gradientUnits="userSpaceOnUse">
<stop stop-color="#D177A5"/>
<stop offset="0.487926" stop-color="#7A70E1"/>
<stop offset="1" stop-color="#7EA9C2"/>
</linearGradient>
<linearGradient id="paint32_linear_6_34607" x1="145.547" y1="245.521" x2="151.312" y2="245.514" gradientUnits="userSpaceOnUse">
<stop stop-color="#D177A5"/>
<stop offset="0.487926" stop-color="#7A70E1"/>
<stop offset="1" stop-color="#7EA9C2"/>
</linearGradient>
<linearGradient id="paint33_linear_6_34607" x1="145.547" y1="245.521" x2="151.312" y2="245.514" gradientUnits="userSpaceOnUse">
<stop stop-color="#D177A5"/>
<stop offset="0.487926" stop-color="#7A70E1"/>
<stop offset="1" stop-color="#7EA9C2"/>
</linearGradient>
<linearGradient id="paint34_linear_6_34607" x1="113.766" y1="242.529" x2="144.758" y2="242.304" gradientUnits="userSpaceOnUse">
<stop stop-color="#D177A5"/>
<stop offset="0.487926" stop-color="#7A70E1"/>
<stop offset="1" stop-color="#7EA9C2"/>
</linearGradient>
<linearGradient id="paint35_linear_6_34607" x1="113.766" y1="242.529" x2="144.758" y2="242.304" gradientUnits="userSpaceOnUse">
<stop stop-color="#D177A5"/>
<stop offset="0.487926" stop-color="#7A70E1"/>
<stop offset="1" stop-color="#7EA9C2"/>
</linearGradient>
<linearGradient id="paint36_linear_6_34607" x1="66.7266" y1="190.615" x2="84.7329" y2="190.533" gradientUnits="userSpaceOnUse">
<stop stop-color="#D177A5"/>
<stop offset="0.487926" stop-color="#7A70E1"/>
<stop offset="1" stop-color="#7EA9C2"/>
</linearGradient>
<linearGradient id="paint37_linear_6_34607" x1="66.7266" y1="190.615" x2="84.7329" y2="190.533" gradientUnits="userSpaceOnUse">
<stop stop-color="#D177A5"/>
<stop offset="0.487926" stop-color="#7A70E1"/>
<stop offset="1" stop-color="#7EA9C2"/>
</linearGradient>
<linearGradient id="paint38_linear_6_34607" x1="90.4434" y1="128.647" x2="107.319" y2="128.584" gradientUnits="userSpaceOnUse">
<stop stop-color="#D177A5"/>
<stop offset="0.487926" stop-color="#7A70E1"/>
<stop offset="1" stop-color="#7EA9C2"/>
</linearGradient>
<linearGradient id="paint39_linear_6_34607" x1="90.4434" y1="128.647" x2="107.319" y2="128.584" gradientUnits="userSpaceOnUse">
<stop stop-color="#D177A5"/>
<stop offset="0.487926" stop-color="#7A70E1"/>
<stop offset="1" stop-color="#7EA9C2"/>
</linearGradient>
<linearGradient id="paint40_linear_6_34607" x1="232.045" y1="148.176" x2="242.695" y2="148.154" gradientUnits="userSpaceOnUse">
<stop stop-color="#D177A5"/>
<stop offset="0.487926" stop-color="#7A70E1"/>
<stop offset="1" stop-color="#7EA9C2"/>
</linearGradient>
<linearGradient id="paint41_linear_6_34607" x1="232.045" y1="148.176" x2="242.695" y2="148.154" gradientUnits="userSpaceOnUse">
<stop stop-color="#D177A5"/>
<stop offset="0.487926" stop-color="#7A70E1"/>
<stop offset="1" stop-color="#7EA9C2"/>
</linearGradient>
<linearGradient id="paint42_linear_6_34607" x1="63.8574" y1="74.078" x2="74.5705" y2="74.0123" gradientUnits="userSpaceOnUse">
<stop stop-color="#D177A5"/>
<stop offset="0.487926" stop-color="#7A70E1"/>
<stop offset="1" stop-color="#7EA9C2"/>
</linearGradient>
<linearGradient id="paint43_linear_6_34607" x1="63.8574" y1="74.078" x2="74.5705" y2="74.0123" gradientUnits="userSpaceOnUse">
<stop stop-color="#D177A5"/>
<stop offset="0.487926" stop-color="#7A70E1"/>
<stop offset="1" stop-color="#7EA9C2"/>
</linearGradient>
<linearGradient id="paint44_linear_6_34607" x1="69.127" y1="82.824" x2="82.9086" y2="82.6256" gradientUnits="userSpaceOnUse">
<stop stop-color="#D177A5"/>
<stop offset="0.487926" stop-color="#7A70E1"/>
<stop offset="1" stop-color="#7EA9C2"/>
</linearGradient>
<linearGradient id="paint45_linear_6_34607" x1="69.127" y1="82.824" x2="82.9086" y2="82.6256" gradientUnits="userSpaceOnUse">
<stop stop-color="#D177A5"/>
<stop offset="0.487926" stop-color="#7A70E1"/>
<stop offset="1" stop-color="#7EA9C2"/>
</linearGradient>
<linearGradient id="paint46_linear_6_34607" x1="87.9961" y1="80.9092" x2="105.945" y2="80.7993" gradientUnits="userSpaceOnUse">
<stop stop-color="#D177A5"/>
<stop offset="0.487926" stop-color="#7A70E1"/>
<stop offset="1" stop-color="#7EA9C2"/>
</linearGradient>
<linearGradient id="paint47_linear_6_34607" x1="87.9961" y1="80.9092" x2="105.945" y2="80.7993" gradientUnits="userSpaceOnUse">
<stop stop-color="#D177A5"/>
<stop offset="0.487926" stop-color="#7A70E1"/>
<stop offset="1" stop-color="#7EA9C2"/>
</linearGradient>
<linearGradient id="paint48_linear_6_34607" x1="57.1992" y1="129.422" x2="73.3611" y2="129.245" gradientUnits="userSpaceOnUse">
<stop stop-color="#D177A5"/>
<stop offset="0.487926" stop-color="#7A70E1"/>
<stop offset="1" stop-color="#7EA9C2"/>
</linearGradient>
<linearGradient id="paint49_linear_6_34607" x1="57.1992" y1="129.422" x2="73.3611" y2="129.245" gradientUnits="userSpaceOnUse">
<stop stop-color="#D177A5"/>
<stop offset="0.487926" stop-color="#7A70E1"/>
<stop offset="1" stop-color="#7EA9C2"/>
</linearGradient>
<linearGradient id="paint50_linear_6_34607" x1="71.2891" y1="51.2475" x2="74.7477" y2="51.2435" gradientUnits="userSpaceOnUse">
<stop stop-color="#D177A5"/>
<stop offset="0.487926" stop-color="#7A70E1"/>
<stop offset="1" stop-color="#7EA9C2"/>
</linearGradient>
<linearGradient id="paint51_linear_6_34607" x1="71.2891" y1="51.2475" x2="74.7477" y2="51.2435" gradientUnits="userSpaceOnUse">
<stop stop-color="#D177A5"/>
<stop offset="0.487926" stop-color="#7A70E1"/>
<stop offset="1" stop-color="#7EA9C2"/>
</linearGradient>
<linearGradient id="paint52_linear_6_34607" x1="133.26" y1="122.639" x2="136.718" y2="122.635" gradientUnits="userSpaceOnUse">
<stop stop-color="#D177A5"/>
<stop offset="0.487926" stop-color="#7A70E1"/>
<stop offset="1" stop-color="#7EA9C2"/>
</linearGradient>
<linearGradient id="paint53_linear_6_34607" x1="133.26" y1="122.639" x2="136.718" y2="122.635" gradientUnits="userSpaceOnUse">
<stop stop-color="#D177A5"/>
<stop offset="0.487926" stop-color="#7A70E1"/>
<stop offset="1" stop-color="#7EA9C2"/>
</linearGradient>
<linearGradient id="paint54_linear_6_34607" x1="10.0137" y1="143.227" x2="13.4723" y2="143.223" gradientUnits="userSpaceOnUse">
<stop stop-color="#D177A5"/>
<stop offset="0.487926" stop-color="#7A70E1"/>
<stop offset="1" stop-color="#7EA9C2"/>
</linearGradient>
<linearGradient id="paint55_linear_6_34607" x1="10.0137" y1="143.227" x2="13.4723" y2="143.223" gradientUnits="userSpaceOnUse">
<stop stop-color="#D177A5"/>
<stop offset="0.487926" stop-color="#7A70E1"/>
<stop offset="1" stop-color="#7EA9C2"/>
</linearGradient>
<linearGradient id="paint56_linear_6_34607" x1="211.959" y1="63.9741" x2="224.476" y2="63.9525" gradientUnits="userSpaceOnUse">
<stop stop-color="#D177A5"/>
<stop offset="0.487926" stop-color="#7A70E1"/>
<stop offset="1" stop-color="#7EA9C2"/>
</linearGradient>
<linearGradient id="paint57_linear_6_34607" x1="211.959" y1="63.9741" x2="224.476" y2="63.9525" gradientUnits="userSpaceOnUse">
<stop stop-color="#D177A5"/>
<stop offset="0.487926" stop-color="#7A70E1"/>
<stop offset="1" stop-color="#7EA9C2"/>
</linearGradient>
<linearGradient id="paint58_linear_6_34607" x1="170.357" y1="74.9326" x2="193.411" y2="74.6073" gradientUnits="userSpaceOnUse">
<stop stop-color="#D177A5"/>
<stop offset="0.487926" stop-color="#7A70E1"/>
<stop offset="1" stop-color="#7EA9C2"/>
</linearGradient>
<linearGradient id="paint59_linear_6_34607" x1="170.357" y1="74.9326" x2="193.411" y2="74.6073" gradientUnits="userSpaceOnUse">
<stop stop-color="#D177A5"/>
<stop offset="0.487926" stop-color="#7A70E1"/>
<stop offset="1" stop-color="#7EA9C2"/>
</linearGradient>
<linearGradient id="paint60_linear_6_34607" x1="162.619" y1="7.38666" x2="165.783" y2="7.38332" gradientUnits="userSpaceOnUse">
<stop stop-color="#D177A5"/>
<stop offset="0.487926" stop-color="#7A70E1"/>
<stop offset="1" stop-color="#7EA9C2"/>
</linearGradient>
<linearGradient id="paint61_linear_6_34607" x1="162.619" y1="7.38666" x2="165.783" y2="7.38332" gradientUnits="userSpaceOnUse">
<stop stop-color="#D177A5"/>
<stop offset="0.487926" stop-color="#7A70E1"/>
<stop offset="1" stop-color="#7EA9C2"/>
</linearGradient>
<linearGradient id="paint62_linear_6_34607" x1="124.848" y1="55.1346" x2="141.604" y2="54.9174" gradientUnits="userSpaceOnUse">
<stop stop-color="#D177A5"/>
<stop offset="0.487926" stop-color="#7A70E1"/>
<stop offset="1" stop-color="#7EA9C2"/>
</linearGradient>
<linearGradient id="paint63_linear_6_34607" x1="124.848" y1="55.1346" x2="141.604" y2="54.9174" gradientUnits="userSpaceOnUse">
<stop stop-color="#D177A5"/>
<stop offset="0.487926" stop-color="#7A70E1"/>
<stop offset="1" stop-color="#7EA9C2"/>
</linearGradient>
<linearGradient id="paint64_linear_6_34607" x1="1" y1="69.3492" x2="18.3158" y2="68.9318" gradientUnits="userSpaceOnUse">
<stop stop-color="#D177A5"/>
<stop offset="0.487926" stop-color="#7A70E1"/>
<stop offset="1" stop-color="#7EA9C2"/>
</linearGradient>
<linearGradient id="paint65_linear_6_34607" x1="1" y1="69.3492" x2="18.3158" y2="68.9318" gradientUnits="userSpaceOnUse">
<stop stop-color="#D177A5"/>
<stop offset="0.487926" stop-color="#7A70E1"/>
<stop offset="1" stop-color="#7EA9C2"/>
</linearGradient>
<linearGradient id="paint66_linear_6_34607" x1="291.838" y1="68.764" x2="315.71" y2="67.7243" gradientUnits="userSpaceOnUse">
<stop stop-color="#D177A5"/>
<stop offset="0.487926" stop-color="#7A70E1"/>
<stop offset="1" stop-color="#7EA9C2"/>
</linearGradient>
<linearGradient id="paint67_linear_6_34607" x1="291.838" y1="68.764" x2="315.71" y2="67.7243" gradientUnits="userSpaceOnUse">
<stop stop-color="#D177A5"/>
<stop offset="0.487926" stop-color="#7A70E1"/>
<stop offset="1" stop-color="#7EA9C2"/>
</linearGradient>
<linearGradient id="paint68_linear_6_34607" x1="243.203" y1="82.641" x2="255.405" y2="82.5853" gradientUnits="userSpaceOnUse">
<stop stop-color="#D177A5"/>
<stop offset="0.487926" stop-color="#7A70E1"/>
<stop offset="1" stop-color="#7EA9C2"/>
</linearGradient>
<linearGradient id="paint69_linear_6_34607" x1="243.203" y1="82.641" x2="255.405" y2="82.5853" gradientUnits="userSpaceOnUse">
<stop stop-color="#D177A5"/>
<stop offset="0.487926" stop-color="#7A70E1"/>
<stop offset="1" stop-color="#7EA9C2"/>
</linearGradient>
<radialGradient id="paint70_radial_6_34607" cx="0" cy="0" r="1" gradientUnits="userSpaceOnUse" gradientTransform="translate(266.924 115.798) rotate(-45) scale(25.7284 29.2104)">
<stop stop-color="#0087FF"/>
<stop offset="0.106" stop-color="#0092F9" stop-opacity="0.5"/>
<stop offset="0.318" stop-color="#0092F9" stop-opacity="0.3"/>
<stop offset="0.614" stop-color="#0092F9" stop-opacity="0.2"/>
<stop offset="1" stop-opacity="0"/>
</radialGradient>
<radialGradient id="paint71_radial_6_34607" cx="0" cy="0" r="1" gradientUnits="userSpaceOnUse" gradientTransform="translate(237.256 142.77) rotate(-45) scale(25.7284 29.2104)">
<stop stop-color="#0087FF"/>
<stop offset="0.106" stop-color="#0092F9" stop-opacity="0.5"/>
<stop offset="0.318" stop-color="#0092F9" stop-opacity="0.3"/>
<stop offset="0.614" stop-color="#0092F9" stop-opacity="0.2"/>
<stop offset="1" stop-opacity="0"/>
</radialGradient>
<radialGradient id="paint72_radial_6_34607" cx="0" cy="0" r="1" gradientUnits="userSpaceOnUse" gradientTransform="translate(215.68 158.953) rotate(-45) scale(25.7284 29.2104)">
<stop stop-color="#0087FF"/>
<stop offset="0.106" stop-color="#0092F9" stop-opacity="0.5"/>
<stop offset="0.318" stop-color="#0092F9" stop-opacity="0.3"/>
<stop offset="0.614" stop-color="#0092F9" stop-opacity="0.2"/>
<stop offset="1" stop-opacity="0"/>
</radialGradient>
<radialGradient id="paint73_radial_6_34607" cx="0" cy="0" r="1" gradientUnits="userSpaceOnUse" gradientTransform="translate(190.057 181.879) rotate(-45) scale(25.7284 29.2104)">
<stop stop-color="#0087FF"/>
<stop offset="0.106" stop-color="#0092F9" stop-opacity="0.5"/>
<stop offset="0.318" stop-color="#0092F9" stop-opacity="0.3"/>
<stop offset="0.614" stop-color="#0092F9" stop-opacity="0.2"/>
<stop offset="1" stop-opacity="0"/>
</radialGradient>
<radialGradient id="paint74_radial_6_34607" cx="0" cy="0" r="1" gradientUnits="userSpaceOnUse" gradientTransform="translate(177.918 211.549) rotate(-45) scale(25.7284 29.2104)">
<stop stop-color="#0087FF"/>
<stop offset="0.106" stop-color="#0092F9" stop-opacity="0.5"/>
<stop offset="0.318" stop-color="#0092F9" stop-opacity="0.3"/>
<stop offset="0.614" stop-color="#0092F9" stop-opacity="0.2"/>
<stop offset="1" stop-opacity="0"/>
</radialGradient>
<radialGradient id="paint75_radial_6_34607" cx="0" cy="0" r="1" gradientUnits="userSpaceOnUse" gradientTransform="translate(206.24 136.027) rotate(-45) scale(25.7284 29.2104)">
<stop stop-color="#0087FF"/>
<stop offset="0.106" stop-color="#0092F9" stop-opacity="0.5"/>
<stop offset="0.318" stop-color="#0092F9" stop-opacity="0.3"/>
<stop offset="0.614" stop-color="#0092F9" stop-opacity="0.2"/>
<stop offset="1" stop-opacity="0"/>
</radialGradient>
<radialGradient id="paint76_radial_6_34607" cx="0" cy="0" r="1" gradientUnits="userSpaceOnUse" gradientTransform="translate(180.615 91.5229) rotate(-45) scale(25.7284 29.2104)">
<stop stop-color="#0087FF"/>
<stop offset="0.106" stop-color="#0092F9" stop-opacity="0.5"/>
<stop offset="0.318" stop-color="#0092F9" stop-opacity="0.3"/>
<stop offset="0.614" stop-color="#0092F9" stop-opacity="0.2"/>
<stop offset="1" stop-opacity="0"/>
</radialGradient>
<linearGradient id="paint77_linear_6_34607" x1="170.74" y1="219.969" x2="460.646" y2="218.43" gradientUnits="userSpaceOnUse">
<stop stop-color="#D177A5"/>
<stop offset="0.487926" stop-color="#7A70E1"/>
<stop offset="1" stop-color="#7EA9C2"/>
</linearGradient>
<linearGradient id="paint78_linear_6_34607" x1="268.674" y1="485.816" x2="355.789" y2="485.301" gradientUnits="userSpaceOnUse">
<stop stop-color="#D177A5"/>
<stop offset="0.487926" stop-color="#7A70E1"/>
<stop offset="1" stop-color="#7EA9C2"/>
</linearGradient>
<linearGradient id="paint79_linear_6_34607" x1="268.666" y1="485.816" x2="355.265" y2="485.307" gradientUnits="userSpaceOnUse">
<stop stop-color="#D177A5"/>
<stop offset="0.487926" stop-color="#7A70E1"/>
<stop offset="1" stop-color="#7EA9C2"/>
</linearGradient>
<linearGradient id="paint80_linear_6_34607" x1="171.125" y1="219.406" x2="459.083" y2="217.88" gradientUnits="userSpaceOnUse">
<stop stop-color="#D177A5"/>
<stop offset="0.487926" stop-color="#7A70E1"/>
<stop offset="1" stop-color="#7EA9C2"/>
</linearGradient>
</defs>
</svg>
