<svg width="760" height="811" viewBox="0 0 760 811" fill="none"
xmlns="http://www.w3.org/2000/svg">
<circle opacity="0.1" cx="380" cy="430.283" r="380" fill="#2940D3" />
<circle opacity="0.06" cx="380" cy="430.283" r="352.464" fill="#2940D3" />
<circle opacity="0.04" cx="380" cy="430.283" r="324.928" fill="#2940D3" />
<path
    d="M412.557 640.285H44.551C37.0849 635.043 31.6617 626.98 29.6008 618.086C27.5219 609.21 28.8596 599.575 33.2525 591.584C35.006 588.403 37.4284 585.347 40.5016 583.522C36.398 576.399 35.1326 566.203 37.0307 558.159C38.9469 550.078 45.6357 544.601 52.5413 540.19C47.353 510.922 53.2463 479.738 68.7388 454.538C84.2494 429.338 109.829 412.978 137.958 404.987C135.499 383.547 142.387 361.185 156.397 345.006C170.425 328.844 192.769 318.486 213.938 318.323C215.493 302.957 224.134 288.495 236.806 280.035C249.497 271.575 265.622 268.845 280.066 273.545C282.235 262.626 289.701 252.937 299.59 248.164C309.46 243.41 321.554 243.699 331.208 248.905C345.995 244.711 362.265 252.611 368.972 266.676C375.696 280.758 371.195 299.396 358.812 308.67C372.786 329.495 372.171 362.107 357.33 382.3C365.501 384.505 369.044 396.22 370.255 404.752C373.78 429.374 369.496 455.098 358.179 477.153C373.256 476.43 387.845 487.674 396.829 500.039C405.814 512.386 408.29 529.379 403.211 543.859C411.96 543.317 419.39 550.241 423.693 557.996C427.163 564.269 428.7 571.41 429.803 578.55C430.146 579.255 430.399 579.996 430.58 580.792C435.262 601.418 428.049 625.877 412.557 640.285Z"
    fill="#407BFF" />
<g opacity="0.6">
    <g opacity="0.6">
        <path opacity="0.6"
            d="M412.557 640.285H44.551C37.0849 635.043 31.6617 626.98 29.6008 618.086C27.5219 609.21 28.8596 599.575 33.2525 591.584C35.006 588.403 37.4284 585.347 40.5016 583.522C36.398 576.399 35.1326 566.203 37.0307 558.159C38.9469 550.078 45.6357 544.601 52.5413 540.19C47.353 510.922 53.2463 479.738 68.7388 454.538C84.2494 429.338 109.829 412.978 137.958 404.987C135.499 383.547 142.387 361.185 156.397 345.006C170.425 328.844 192.769 318.486 213.938 318.323C215.493 302.957 224.134 288.495 236.806 280.035C249.497 271.575 265.622 268.845 280.066 273.545C282.235 262.626 289.701 252.937 299.59 248.164C309.46 243.41 321.554 243.699 331.208 248.905C345.995 244.711 362.265 252.611 368.972 266.676C375.696 280.758 371.195 299.396 358.812 308.67C372.786 329.495 372.171 362.107 357.33 382.3C365.501 384.505 369.044 396.22 370.255 404.752C373.78 429.374 369.496 455.098 358.179 477.153C373.256 476.43 387.845 487.674 396.829 500.039C405.814 512.386 408.29 529.379 403.211 543.859C411.96 543.317 419.39 550.241 423.693 557.996C427.163 564.269 428.7 571.41 429.803 578.55C430.146 579.255 430.399 579.996 430.58 580.792C435.262 601.418 428.049 625.877 412.557 640.285Z"
            fill="white" />
    </g>
</g>
<path
    d="M324.266 218.607L437.992 200.15C439.746 199.861 441.138 201.614 440.469 203.259L397.209 310.044C396.558 311.653 394.407 311.978 393.323 310.604L322.856 222.277C321.753 220.921 322.531 218.896 324.266 218.607Z"
    fill="#407BFF" />
<path opacity="0.2"
    d="M324.266 218.607L437.992 200.15C439.746 199.861 441.138 201.614 440.469 203.259L397.209 310.044C396.558 311.653 394.407 311.978 393.323 310.604L322.856 222.277C321.753 220.921 322.531 218.896 324.266 218.607Z"
    fill="white" />
<path
    d="M332.383 261.686L339.469 252.521L333.305 244.783L322.784 249.664C324.212 254.618 327.52 259.011 332.383 261.686Z"
    fill="#263238" />
<path opacity="0.2"
    d="M333.305 244.783C333.305 244.783 331.732 245.525 330.846 245.922C332.256 249.357 334.624 252.412 337.806 254.654L339.469 252.503L333.305 244.783Z"
    fill="white" />
<path opacity="0.4"
    d="M328.189 247.152C327.52 247.459 326.851 247.766 326.218 248.074C327.863 252.268 330.756 256.01 334.697 258.685L336.034 256.968C332.744 254.184 330.105 250.84 328.189 247.152Z"
    fill="white" />
<path
    d="M343.519 256.317C336.92 252.665 332.419 246.699 330.485 239.993L395.871 187.821C403.573 181.674 413.027 179.234 422.102 180.264C421.09 189.339 416.607 198.016 408.905 204.163L343.519 256.317Z"
    fill="#407BFF" />
<path
    d="M395.871 187.821C395.871 187.821 340.897 231.677 334.227 236.992C336.541 243.536 341.006 249.357 347.261 253.316C353.913 248.001 408.905 204.127 408.905 204.127C416.606 197.98 421.09 189.303 422.102 180.228C413.027 179.234 403.572 181.674 395.871 187.821Z"
    fill="#407BFF" />
<path opacity="0.5"
    d="M395.871 187.821C395.871 187.821 340.897 231.677 334.227 236.992C336.541 243.536 341.006 249.357 347.261 253.316C353.913 248.001 408.905 204.127 408.905 204.127C416.606 197.98 421.09 189.303 422.102 180.228C413.027 179.234 403.572 181.674 395.871 187.821Z"
    fill="white" />
<path
    d="M395.871 187.821C395.871 187.821 394.841 188.652 393.051 190.08C395.727 196.48 400.137 202.174 406.085 206.404C407.875 204.976 408.923 204.145 408.923 204.145C416.624 197.998 421.107 189.321 422.12 180.246C413.027 179.234 403.572 181.674 395.871 187.821Z"
    fill="#407BFF" />
<path opacity="0.2"
    d="M395.871 187.821C395.871 187.821 394.841 188.652 393.051 190.08C395.727 196.48 400.137 202.174 406.085 206.404C407.875 204.976 408.923 204.145 408.923 204.145C416.624 197.998 421.107 189.321 422.12 180.246C413.027 179.234 403.572 181.674 395.871 187.821Z"
    fill="white" />
<path
    d="M366.748 302.035L373.835 292.87L367.67 285.133L357.149 290.013C358.577 294.949 361.885 299.342 366.748 302.035Z"
    fill="#263238" />
<path opacity="0.2"
    d="M367.67 285.133C367.67 285.133 366.097 285.874 365.211 286.271C366.621 289.706 368.99 292.761 372.171 295.003L373.834 292.852L367.67 285.133Z"
    fill="white" />
<path opacity="0.4"
    d="M362.573 287.501C361.904 287.808 361.235 288.115 360.602 288.423C362.247 292.617 365.14 296.359 369.081 299.034L370.418 297.317C367.11 294.533 364.489 291.188 362.573 287.501Z"
    fill="white" />
<path
    d="M377.902 296.666C371.304 293.014 366.802 287.049 364.868 280.342L430.255 228.17C437.956 222.023 447.41 219.583 456.485 220.613C455.473 229.688 450.99 238.366 443.289 244.512L377.902 296.666Z"
    fill="#407BFF" />
<path
    d="M430.255 228.17C430.255 228.17 375.281 272.026 368.61 277.341C370.924 283.885 375.389 289.706 381.644 293.665C388.297 288.35 443.289 244.476 443.289 244.476C450.99 238.329 455.473 229.652 456.485 220.577C447.41 219.583 437.956 222.023 430.255 228.17Z"
    fill="#407BFF" />
<path opacity="0.5"
    d="M430.255 228.17C430.255 228.17 375.281 272.026 368.61 277.341C370.924 283.885 375.389 289.706 381.644 293.665C388.297 288.35 443.289 244.476 443.289 244.476C450.99 238.329 455.473 229.652 456.485 220.577C447.41 219.583 437.956 222.023 430.255 228.17Z"
    fill="white" />
<path
    d="M430.254 228.17C430.254 228.17 429.224 229.001 427.434 230.429C430.11 236.829 434.521 242.523 440.468 246.753C442.258 245.325 443.306 244.494 443.306 244.494C451.008 238.347 455.491 229.67 456.503 220.595C447.41 219.583 437.956 222.023 430.254 228.17Z"
    fill="#407BFF" />
<path opacity="0.2"
    d="M430.254 228.17C430.254 228.17 429.224 229.001 427.434 230.429C430.11 236.829 434.521 242.523 440.468 246.753C442.258 245.325 443.306 244.494 443.306 244.494C451.008 238.347 455.491 229.67 456.503 220.595C447.41 219.583 437.956 222.023 430.254 228.17Z"
    fill="white" />
<path
    d="M348.435 288.785L359.879 273.979L349.918 261.505L332.943 269.387C335.257 277.36 340.59 284.464 348.435 288.785Z"
    fill="#263238" />
<path opacity="0.2"
    d="M349.937 261.505C349.937 261.505 347.388 262.681 345.959 263.349C348.237 268.881 352.052 273.816 357.204 277.45L359.879 273.979L349.937 261.505Z"
    fill="white" />
<path opacity="0.4"
    d="M341.693 265.338C340.608 265.844 339.523 266.332 338.511 266.82C341.168 273.599 345.814 279.637 352.196 283.958L354.347 281.174C349.032 276.691 344.784 271.286 341.693 265.338Z"
    fill="white" />
<path
    d="M366.423 280.126C355.775 274.25 348.508 264.597 345.399 253.768L450.954 169.545C463.373 159.638 478.649 155.697 493.292 157.343C491.646 171.985 484.415 185.996 471.978 195.92L366.423 280.126Z"
    fill="#407BFF" />
<path
    d="M450.953 169.545C450.953 169.545 362.192 240.355 351.436 248.942C355.178 259.517 362.373 268.917 372.46 275.299C383.217 266.712 471.978 195.902 471.978 195.902C484.397 185.995 491.628 171.967 493.291 157.342C478.648 155.697 463.391 159.638 450.953 169.545Z"
    fill="#407BFF" />
<path opacity="0.6"
    d="M450.953 169.545C450.953 169.545 362.192 240.355 351.436 248.942C355.178 259.517 362.373 268.917 372.46 275.299C383.217 266.712 471.978 195.902 471.978 195.902C484.397 185.995 491.628 171.967 493.291 157.342C478.648 155.697 463.391 159.638 450.953 169.545Z"
    fill="white" />
<path
    d="M450.954 169.545C450.954 169.545 449.29 170.883 446.38 173.178C450.682 183.501 457.823 192.72 467.404 199.536C470.297 197.222 471.978 195.884 471.978 195.884C484.397 185.977 491.628 171.949 493.291 157.324C478.649 155.697 463.391 159.638 450.954 169.545Z"
    fill="#407BFF" />
<path opacity="0.2"
    d="M450.954 169.545C450.954 169.545 449.29 170.883 446.38 173.178C450.682 183.501 457.823 192.72 467.404 199.536C470.297 197.222 471.978 195.884 471.978 195.884C484.397 185.977 491.628 171.949 493.291 157.324C478.649 155.697 463.391 159.638 450.954 169.545Z"
    fill="white" />
<path
    d="M446.488 207.255C442.24 210.635 436.075 209.948 432.695 205.7C429.314 201.452 430.001 195.287 434.249 191.907C438.497 188.526 444.662 189.213 448.042 193.462C451.423 197.692 450.718 203.874 446.488 207.255Z"
    fill="#407BFF" />
<path
    d="M432.677 205.7C429.459 201.651 429.947 195.848 433.671 192.395C433.472 192.539 433.255 192.666 433.075 192.829C428.826 196.209 428.139 202.392 431.52 206.622C434.9 210.87 441.083 211.557 445.313 208.177C445.512 208.014 445.693 207.851 445.873 207.689C441.679 210.545 435.913 209.749 432.677 205.7Z"
    fill="#407BFF" />
<path opacity="0.3"
    d="M432.677 205.7C429.459 201.651 429.947 195.848 433.671 192.395C433.472 192.539 433.255 192.666 433.075 192.829C428.826 196.209 428.139 202.392 431.52 206.622C434.9 210.87 441.083 211.557 445.313 208.177C445.512 208.014 445.693 207.851 445.873 207.689C441.679 210.545 435.913 209.749 432.677 205.7Z"
    fill="black" />
<path
    d="M444.68 204.995C441.68 207.381 437.305 206.893 434.919 203.893C432.532 200.892 433.02 196.517 436.021 194.131C439.022 191.744 443.397 192.232 445.783 195.233C448.169 198.234 447.681 202.609 444.68 204.995Z"
    fill="white" />
<path
    d="M434.737 203.603L446.958 197.475C446.723 196.733 446.361 196.028 445.873 195.378L433.671 201.488C433.906 202.229 434.267 202.934 434.737 203.603Z"
    fill="#407BFF" />
<path
    d="M436.635 205.393L447.265 200.078C447.301 199.644 447.283 199.21 447.247 198.776L435.605 204.597C435.93 204.905 436.274 205.158 436.635 205.393Z"
    fill="#407BFF" />
<g opacity="0.7">
    <path opacity="0.7"
        d="M434.737 203.603L446.958 197.475C446.723 196.733 446.361 196.028 445.873 195.378L433.671 201.488C433.906 202.229 434.267 202.934 434.737 203.603Z"
        fill="white" />
    <path opacity="0.7"
        d="M436.635 205.393L447.265 200.078C447.301 199.644 447.283 199.21 447.247 198.776L435.605 204.597C435.93 204.905 436.274 205.158 436.635 205.393Z"
        fill="white" />
</g>
<path d="M565.676 313.912H468.527V640.032H565.676V313.912Z" fill="#407BFF" />
<path opacity="0.2" d="M495.734 313.876H468.292V639.851H495.734V313.876Z"
    fill="black" />
<path d="M125.252 549.336H28.1029V640.05H125.252V549.336Z" fill="#407BFF" />
<path opacity="0.2" d="M54.6405 549.246H27.1987V639.869H54.6405V549.246Z"
    fill="black" />
<path d="M266.292 470.862H169.143V640.032H266.292V470.862Z" fill="#407BFF" />
<path opacity="0.2" d="M195.916 470.79H168.474V639.869H195.916V470.79Z" fill="black" />
<path d="M417.386 392.387H320.237V640.032H417.386V392.387Z" fill="#407BFF" />
<path opacity="0.2" d="M347.227 392.333H319.785V639.869H347.227V392.333Z"
    fill="black" />
<path d="M706.717 235.437H609.568V640.032H706.717V235.437Z" fill="#407BFF" />
<path opacity="0.2" d="M637.01 235.437H609.568V639.869H637.01V235.437Z" fill="black" />
<path
    d="M221.587 417.858L213.56 445.246L225.383 448.012L234.386 421.799L221.587 417.858Z"
    fill="#FF8B7B" />
<path
    d="M228.04 444.848L214.428 442.227C213.922 442.136 213.398 442.426 213.181 442.932L208.318 454.321C207.884 455.333 208.282 456.49 209.204 456.924C209.33 456.978 209.457 457.014 209.583 457.05C214.518 457.9 218.929 458.442 225.04 459.636C232.252 461.028 230.228 461.588 238.688 463.36C243.786 464.408 245.973 458.37 243.876 457.647C234.241 454.411 233.861 451.013 230.806 446.475C230.083 445.589 229.107 445.011 228.04 444.848Z"
    fill="#263238" />
<path d="M157.647 239.089L204.305 267.652L155.423 276.202L157.647 239.089Z"
    fill="#263238" />
<path
    d="M232.433 435.068L215.603 432.049C215.603 432.049 221.876 408.693 228.673 376.768C229.721 371.851 243.28 334.43 243.28 334.43C243.28 334.43 176.447 303.083 175.326 302.758C174.476 302.487 168.999 302.053 160.448 295.364C144.54 282.927 149.547 258.613 149.547 258.613L191.18 259.607C231.764 281.282 266.997 312.99 271.752 325.97C278.404 344.228 232.433 435.068 232.433 435.068Z"
    fill="#263238" />
<path d="M65.4867 405.656L37.7014 412.2L41.1542 423.86L68.3791 418.726L65.4867 405.656Z"
    fill="#FF8B7B" />
<path
    d="M45.2036 424.583L40.7384 411.459C40.5757 410.971 40.0515 410.663 39.4911 410.718L27.1802 412.11C26.0956 412.218 25.264 413.158 25.3544 414.17C25.3725 414.297 25.3905 414.423 25.4267 414.55C27.126 419.25 28.8253 423.372 30.8138 429.265C33.1639 436.225 31.6815 434.743 34.3209 442.968C35.9298 447.921 42.2569 446.837 41.8412 444.649C39.8888 434.67 42.6547 432.646 45.0951 427.765C45.5832 426.752 45.6013 425.613 45.2036 424.583Z"
    fill="#263238" />
<path
    d="M55.887 423.571L50.1925 407.445L138.628 358.184C138.628 358.184 132.843 284.59 132.572 283.451C132.391 282.583 130.059 277.612 131.632 266.856C134.579 246.88 158.188 239.215 158.188 239.215L178.363 281.842C178.327 281.86 168.98 368.199 160.032 378.756C147.468 393.58 55.887 423.571 55.887 423.571Z"
    fill="#263238" />
<path opacity="0.2" d="M175.29 302.74L160.412 295.364L171.873 330.652L175.29 302.74Z"
    fill="black" />
<path
    d="M210.813 186.899C203.148 188.544 195.447 189.99 187.746 191.436L181.961 192.485L176.809 193.371C174.64 193.805 172.579 194.889 170.88 196.498L162.853 204.778C160.123 207.58 157.43 210.4 154.646 213.184C149.15 218.752 143.637 224.301 137.996 229.761C136.026 231.677 132.862 231.623 130.964 229.634C129.283 227.899 129.12 225.242 130.458 223.325C134.959 216.908 139.569 210.599 144.197 204.308C146.493 201.144 148.843 198.035 151.193 194.907L158.37 185.399C161.823 181.15 166.649 177.951 171.982 176.251L178.237 174.57L183.877 173.088C191.416 171.153 198.936 169.237 206.511 167.52C211.862 166.29 217.194 169.635 218.406 174.986C219.635 180.337 216.291 185.67 210.94 186.881C210.922 186.881 210.831 186.899 210.813 186.899Z"
    fill="#407BFF" />
<path opacity="0.1"
    d="M210.813 186.899C203.148 188.544 195.447 189.99 187.746 191.436L181.961 192.485L176.809 193.371C174.64 193.805 172.579 194.889 170.88 196.498L162.853 204.778C160.123 207.58 157.43 210.4 154.646 213.184C149.15 218.752 143.637 224.301 137.996 229.761C136.026 231.677 132.862 231.623 130.964 229.634C129.283 227.899 129.12 225.242 130.458 223.325C134.959 216.908 139.569 210.599 144.197 204.308C146.493 201.144 148.843 198.035 151.193 194.907L158.37 185.399C161.823 181.15 166.649 177.951 171.982 176.251L178.237 174.57L183.877 173.088C191.416 171.153 198.936 169.237 206.511 167.52C211.862 166.29 217.194 169.635 218.406 174.986C219.635 180.337 216.291 185.67 210.94 186.881C210.922 186.881 210.831 186.899 210.813 186.899Z"
    fill="black" />
<path
    d="M128.922 223.271L116.991 227.899L127.783 238.366L136.786 231.207C137.852 230.358 138.015 228.785 137.093 227.772C135.43 225.892 132.501 223.343 128.922 223.271Z"
    fill="#FF8B7B" />
<path
    d="M116.991 227.899L115.111 231.388C114.189 233.105 114.623 235.257 116.16 236.468L119.992 239.469C121.167 240.391 122.74 240.589 124.096 239.993L127.783 238.366L116.991 227.899Z"
    fill="#FF8B7B" />
<path
    d="M63.4078 275.208L59.015 274.467L61.7447 271.177L116.737 251.418C125.486 248.273 131.145 242.307 126.679 231.677C122.504 221.735 113.103 218.788 104.372 221.897L49.3977 241.403L44.9687 240.572L47.7346 237.408L102.709 217.92C112.868 214.323 122.702 215.136 129.265 230.774C135.845 246.429 128.596 251.762 118.418 255.413L63.4078 275.208Z"
    fill="#263238" />
<path
    d="M79.6962 215.552L78.485 212.822C75.9722 207.146 69.6269 204.235 63.6794 206.025L23.1313 218.209L30.4166 236.124L79.6962 215.552Z"
    fill="#263238" />
<path opacity="0.2"
    d="M79.6962 215.552L78.485 212.822C75.9722 207.146 69.6269 204.235 63.6794 206.025L23.1313 218.209L30.4166 236.124L79.6962 215.552Z"
    fill="white" />
<path
    d="M65.7576 281.644L64.0764 277.612L117.387 254.148C125.866 250.424 131.307 243.97 126.842 233.322C122.666 223.361 113.482 220.885 105.004 224.573L51.6932 247.802L50.0301 243.789L103.341 220.596C113.193 216.311 122.774 216.582 129.355 232.238C135.953 247.911 128.939 253.804 119.087 258.161L65.7576 281.644Z"
    fill="#263238" />
<path
    d="M59.6842 306.826L26.8191 227.411L66.6621 210.436C71.76 208.231 77.581 210.545 79.6961 215.57L103.83 273.31C106.559 279.836 103.468 287.483 96.9059 290.393L59.6842 306.826Z"
    fill="#263238" />
<g opacity="0.3">
    <path opacity="0.3"
        d="M65.7583 281.644L61.4739 281.156L64.0952 277.612L117.406 254.148C125.884 250.424 131.326 243.97 126.861 233.322C122.685 223.362 113.501 220.885 105.023 224.573L51.712 247.802L47.3915 247.206L50.0489 243.789L103.36 220.596C113.212 216.311 122.793 216.582 129.373 232.238C135.972 247.911 128.958 253.804 119.105 258.161L65.7583 281.644Z"
        fill="white" />
</g>
<path
    d="M72.7906 239.921L70.0428 233.322L72.5013 232.238L75.2672 238.854L72.7906 239.921Z"
    fill="#263238" />
<path
    d="M56.7737 246.917L54.0079 240.282L56.5026 239.198L59.2504 245.832L56.7737 246.917Z"
    fill="#263238" />
<path
    d="M86.9636 273.906L84.1977 267.254L86.6562 266.169L89.4402 272.804L86.9636 273.906Z"
    fill="#263238" />
<path
    d="M70.9286 280.975L68.1627 274.322L70.6393 273.22L73.4233 279.872L70.9286 280.975Z"
    fill="#263238" />
<path
    d="M273.198 156.727C273.705 156.999 273.813 157.83 273.433 158.626C273.054 159.421 272.313 159.855 271.806 159.584C271.3 159.313 271.192 158.481 271.572 157.686C271.951 156.854 272.692 156.456 273.198 156.727Z"
    fill="#263238" />
<path
    d="M272.837 157.342C273.452 157.487 274.247 157.342 274.807 157.017C274.139 157.071 273.434 156.854 272.909 156.42C273.018 156.709 273.018 157.107 272.837 157.342Z"
    fill="#263238" />
<path
    d="M268.336 164.88C269.475 165.857 270.975 166.272 272.439 166.037C271.897 163.199 271.752 160.307 272.005 157.432L268.336 164.88Z"
    fill="#FF5652" />
<path
    d="M270.342 152.678C271.626 152.371 272.981 152.714 273.976 153.582C274.012 153.636 274.048 153.672 274.102 153.708C274.337 153.889 274.663 153.835 274.843 153.6C275.024 153.365 274.97 153.04 274.735 152.859C273.524 151.738 271.843 151.268 270.216 151.593C270.089 151.611 269.981 151.684 269.908 151.774C269.727 152.009 269.764 152.335 269.999 152.515C270.089 152.624 270.216 152.678 270.342 152.678Z"
    fill="#263238" />
<path
    d="M234.259 189.629C222.563 180.59 225.763 172.871 225.763 172.871C231.891 172.202 236.953 166.146 240.568 160.054C240.478 162.006 240.713 163.977 241.4 166.074C242.738 170.087 251.071 171.913 251.071 171.913C251.09 171.931 250.258 172.943 249.173 174.48C246.498 178.24 242.286 185.218 244.798 188.797C244.798 188.815 247.149 199.589 234.259 189.629Z"
    fill="#FF8B7B" />
<path
    d="M250.511 172.997C249.969 173.431 249.426 173.865 248.902 174.371C248.83 174.371 248.775 174.353 248.721 174.299C245.467 172.835 242.756 170.087 241.418 166.074C240.713 163.959 240.478 161.988 240.568 160.054C241.49 158.517 242.322 156.944 243.063 155.48L250.24 172.365L250.511 172.997Z"
    fill="#FF8B7B" />
<path
    d="M266.311 170.087C262.84 174.317 257.634 176.07 252.789 175.456L252.771 175.438C252.735 175.438 252.735 175.438 252.717 175.42C251.397 175.275 250.114 174.913 248.903 174.371C248.83 174.371 248.776 174.353 248.722 174.299C245.468 172.835 242.756 170.087 241.418 166.073C240.713 163.958 240.478 161.988 240.569 160.054C240.75 155.137 243.1 150.219 246.1 143.079C246.95 140.964 248.288 139.066 250.005 137.547C256.115 132.142 265.462 132.738 270.831 138.849C278.423 147.381 272.675 162.386 266.311 170.087Z"
    fill="#FF8B7B" />
<path opacity="0.2"
    d="M251.975 175.184C250.764 175.058 250.185 174.949 249.173 174.497C250.258 172.961 251.089 171.93 251.071 171.93C252.174 170.701 253.295 169.472 253.295 169.472C253.259 169.508 251.36 174.696 251.975 175.184Z"
    fill="black" />
<path
    d="M275.748 151.846C273.614 152.605 269.637 151.521 270.017 151.25C271.517 150.4 273.307 147.941 271.319 147.291C270.993 148.574 266.618 156.745 265.353 157.161C264.666 157.378 259.839 162.874 253.404 166.001C248.27 168.496 247.293 169.743 247.293 169.743L238.164 165.007C235.489 162.295 229.035 138.017 242.72 133.389C247.221 131.87 250.656 128.074 257.76 130.117C262.153 131.382 267.305 130.605 271.644 132.105C275.964 133.606 279.96 136.842 281.117 141.271C281.677 143.458 281.099 149.966 275.748 151.846Z"
    fill="#263238" />
<path
    d="M267.504 153.799C269.384 156.438 267.811 161.048 266.112 163.416C264.231 166.037 261.285 166.29 260.435 162.874C259.802 160.271 260.056 157.523 261.14 155.064C262.478 152.118 265.623 151.16 267.504 153.799Z"
    fill="#FF8B7B" />
<path
    d="M219.13 174.407C219.13 174.407 225.33 170.267 229.434 170.665C233.537 171.063 244.04 182.307 245.324 184.513C246.626 186.718 245.107 192.521 245.107 192.521L219.13 174.407Z"
    fill="#407BFF" />
<path opacity="0.3"
    d="M219.13 174.407C219.13 174.407 225.33 170.267 229.434 170.665C233.537 171.063 244.04 182.307 245.324 184.513C246.626 186.718 245.107 192.521 245.107 192.521L219.13 174.407Z"
    fill="white" />
<path
    d="M248.272 193.569C246.663 191.798 246.374 191.111 244.367 189.267C238.203 183.898 231.731 178.909 224.988 174.299C222.512 172.618 219.908 171.298 217.269 170.069C211.81 167.556 205.356 169.382 202.012 174.317C192.647 188.128 190.46 198.83 184.241 207.887C171.84 225.91 159.638 235.763 156.004 239.378L163.723 247.64C179.704 259.661 192.774 264.506 204.307 267.651C204.307 267.651 218.408 245.163 226.471 239.432C248.543 223.777 247.206 217.486 250.64 210.707C253.497 205.085 252.557 198.252 248.272 193.569Z"
    fill="#407BFF" />
<path
    d="M250.641 210.725C249.412 213.13 248.798 215.516 247.478 218.282C245.905 221.644 243.284 225.585 237.3 230.9C234.516 233.413 230.991 236.215 226.49 239.414C223.85 241.276 220.578 244.928 217.379 248.977C217.361 248.996 217.343 249.014 217.324 249.032C214.306 252.846 214.052 258.161 216.583 262.319C222.314 271.665 231.118 285.006 231.118 285.006C224.917 283.379 222.368 282.71 212.48 285.838C197.005 290.719 164.574 286.416 155.427 273.346C158.012 267.254 161.627 261.722 166.671 257.438C161.121 260.999 155.698 265.826 151.179 270.616C147.093 271.448 142.953 269.224 140.007 266.296C137.042 263.367 134.854 259.734 132.016 256.715C129.16 253.66 126.069 250.858 121.911 251.201C127.334 244.042 136.5 241.005 145.123 238.511C151.558 236.667 159.765 233.991 165.93 229.906C171.136 224.663 177.662 217.414 184.224 207.869C190.425 198.812 192.63 188.128 201.995 174.299C205.339 169.364 211.811 167.538 217.252 170.051C219.91 171.262 222.495 172.6 224.989 174.281C231.714 178.891 238.204 183.88 244.369 189.231C246.357 191.093 246.646 191.78 248.255 193.552C252.54 198.288 253.498 205.067 250.641 210.725Z"
    fill="#407BFF" />
<path
    d="M336.185 187.134L345.495 183.121C345.874 182.958 346.254 182.741 346.579 182.488L350.773 179.216C351.316 178.782 351.605 178.005 351.406 177.264L347.158 170.485C346.869 169.418 345.82 168.713 344.844 168.93L338.553 171.262C338.083 171.443 337.667 171.714 337.324 172.093L331.014 178.963C330.508 179.559 330.382 180.463 330.707 181.277L333.491 185.688C333.961 186.863 335.154 187.496 336.185 187.134Z"
    fill="#FF8B7B" />
<path opacity="0.2"
    d="M237.301 230.9L241.314 209.026L249.792 213.6C246.809 221.536 243.284 225.585 237.301 230.9Z"
    fill="black" />
<path
    d="M298.71 215.787C310.298 207.706 324.886 196.317 335.516 187.17C336.51 183.663 333.202 179.053 329.839 180.463C321.47 183.97 296.45 197.836 292.057 197.962C289.02 198.053 257.746 193.533 247.478 192.051C245.453 191.762 243.356 192.159 241.639 193.298C235.981 197.113 234.534 201.325 234.86 205.013C235.366 210.779 240.301 215.154 246.086 215.606C260.385 216.691 281.825 217.866 290.177 218.227C293.214 218.354 296.215 217.54 298.71 215.787Z"
    fill="#407BFF" />
<path
    d="M259.463 160.777C256.155 170.231 251.762 188.273 244.513 195.197C237.264 202.12 227.086 202.337 217.342 204.705C214.992 205.284 212.009 208.213 212.064 207.761C209.551 210.4 208.231 213.78 207.689 217.378C204.182 214.63 200.675 211.882 197.168 209.134C196.173 208.357 195.143 207.526 194.619 206.369C193.751 204.416 194.619 202.12 195.794 200.349C196.969 198.577 198.361 195.359 198.993 193.317C195.251 196.39 192.63 199.571 191.148 204.163C186.014 202.301 180.012 198.035 179.904 192.557C179.813 188.255 181.639 183.934 184.803 181.006C181.151 182.85 178.403 185.905 176.487 189.52C175.384 186.302 172.691 183.067 169.292 183.175C172.166 177.499 175.095 171.732 179.325 166.978C183.555 162.223 189.322 158.481 195.667 158.047C200.512 157.704 205.248 159.276 209.876 160.741C214.504 162.223 219.313 163.633 224.139 163C228.948 162.368 233.901 155.01 234.787 150.238C241.53 146.206 251.274 155.896 259.463 160.777Z"
    fill="#263238" />
<path opacity="0.2"
    d="M291.493 152.172C290.499 171.732 273.849 186.772 254.271 185.778H254.144C252.644 185.706 251.18 185.525 249.734 185.254C242.864 175.492 233.572 167.773 222.78 162.657C222.292 161.319 221.876 159.909 221.551 158.481C220.809 155.317 220.484 152.009 220.665 148.592C221.659 129.014 238.309 113.974 257.869 114.968C277.428 115.944 292.487 132.594 291.493 152.172Z"
    fill="black" />
<path
    d="M268.1 183.753C263.798 185.29 259.133 186.031 254.289 185.796H254.162C252.644 185.724 251.197 185.543 249.751 185.272C242.882 175.51 233.572 167.773 222.798 162.675C222.309 161.337 221.876 159.927 221.568 158.499C220.827 155.335 220.484 152.027 220.664 148.611C221.496 132.323 233.174 119.162 248.359 115.782H248.377C250.438 116.83 252.282 118.349 253.674 120.156C256.838 124.206 258.157 129.412 258.844 134.51C259.893 142.247 259.712 150.165 258.302 157.848C257.326 163.163 257.651 168.677 259.784 173.648C263.255 181.656 268.1 183.753 268.1 183.753Z"
    fill="#407BFF" />
<path opacity="0.4"
    d="M268.1 183.753C263.798 185.29 259.133 186.031 254.289 185.796H254.162C252.644 185.724 251.197 185.543 249.751 185.272C242.882 175.51 233.572 167.773 222.798 162.675C222.309 161.337 221.876 159.927 221.568 158.499C220.827 155.335 220.484 152.027 220.664 148.611C221.496 132.323 233.174 119.162 248.359 115.782H248.377C250.438 116.83 252.282 118.349 253.674 120.156C256.838 124.206 258.157 129.412 258.844 134.51C259.893 142.247 259.712 150.165 258.302 157.848C257.326 163.163 257.651 168.677 259.784 173.648C263.255 181.656 268.1 183.753 268.1 183.753Z"
    fill="white" />
<path
    d="M253.71 188.381C252.517 189.466 251.397 188.237 251.397 188.237C250.8 187.297 250.203 186.338 249.571 185.435C242.846 175.582 233.662 167.718 222.942 162.458C221.858 161.897 220.755 161.391 219.634 160.903C218.658 160.469 218.839 159.041 219.634 158.354C220.213 157.866 221.117 157.866 221.767 158.282C222.02 158.427 222.219 158.644 222.364 158.897C234.91 164.916 246.19 174.498 253.964 186.049C253.982 186.067 254 186.103 254.018 186.121C254.018 186.103 254.867 187.315 253.71 188.381Z"
    fill="#407BFF" />
<path
    d="M261.141 153.347C261.141 155.083 259.731 156.475 258.013 156.475C256.278 156.475 254.886 155.064 254.886 153.347C254.886 151.63 256.296 150.22 258.013 150.22C259.749 150.22 261.141 151.612 261.141 153.347Z"
    fill="#263238" />
<path
    d="M262.19 154.287C262.19 156.023 260.78 157.415 259.062 157.415C257.327 157.415 255.935 156.004 255.935 154.287C255.935 152.57 257.345 151.16 259.062 151.16C260.78 151.16 262.19 152.552 262.19 154.287Z"
    fill="#407BFF" />
<path opacity="0.7"
    d="M262.19 154.287C262.19 156.023 260.78 157.415 259.062 157.415C257.327 157.415 255.935 156.004 255.935 154.287C255.935 152.57 257.345 151.16 259.062 151.16C260.78 151.16 262.19 152.552 262.19 154.287Z"
    fill="white" />
<path
    d="M703.155 78.523C703.155 103.036 683.288 122.904 658.774 122.904C657.78 122.904 656.804 122.885 655.81 122.795C632.725 121.277 614.412 102.042 614.412 78.505C614.412 54.986 632.707 35.7514 655.81 34.2148C656.804 34.1425 657.798 34.1064 658.774 34.1064C683.288 34.1425 703.155 54.0098 703.155 78.523Z"
    fill="#407BFF" />
<path opacity="0.2"
    d="M697.226 78.5228C697.226 102.042 678.931 121.276 655.81 122.813C632.725 121.294 614.412 102.06 614.412 78.5228C614.412 55.0039 632.707 35.7693 655.81 34.2327C678.931 35.7512 697.226 55.0039 697.226 78.5228Z"
    fill="white" />
<path opacity="0.4"
    d="M686.422 91.2171C693.441 74.2722 685.394 54.8457 668.449 47.8268C651.504 40.8078 632.078 48.8544 625.059 65.7992C618.04 82.7441 626.087 102.171 643.031 109.19C659.976 116.208 679.403 108.162 686.422 91.2171Z"
    fill="white" />
<path opacity="0.4"
    d="M661.437 102.097C674.622 98.984 682.787 85.7714 679.674 72.5862C676.56 59.4011 663.348 51.2363 650.162 54.3497C636.977 57.463 628.812 70.6756 631.926 83.8608C635.039 97.046 648.252 105.211 661.437 102.097Z"
    fill="white" />
<path
    d="M663.837 78.523C663.837 83.8017 659.552 88.1041 654.256 88.1041C648.977 88.1041 644.674 83.8198 644.674 78.523C644.674 73.2444 648.959 68.9419 654.256 68.9419C659.552 68.9419 663.837 73.2263 663.837 78.523Z"
    fill="#263238" />
<path
    d="M587.694 111.443L596.57 112.889L609.586 105.206V105.188L602.951 102.259L587.694 111.443Z"
    fill="#407BFF" />
<path
    d="M649.118 81.0288L596.253 112.314L596.925 113.45L649.79 82.1645L649.118 81.0288Z"
    fill="#263238" />
<path
    d="M595.431 120.843L608.266 113.214L609.585 105.206L596.57 112.889L595.431 120.843Z"
    fill="#407BFF" />
<path opacity="0.2"
    d="M595.431 120.843L608.266 113.214L609.585 105.206L596.57 112.889L595.431 120.843Z"
    fill="black" />
<path
    d="M652.864 78.0351L644.042 80.3129L652.086 84.7238L655.72 78.9571L652.864 78.0351Z"
    fill="white" />
<path
    d="M657.328 21.85C655.502 21.85 654.038 20.3676 654.038 18.5598V4.00738C654.038 2.18154 655.52 0.717255 657.328 0.717255C659.136 0.717255 660.618 2.19962 660.618 4.00738V18.5598C660.618 20.3857 659.154 21.85 657.328 21.85Z"
    fill="#407BFF" />
<path
    d="M657.328 156.329C655.502 156.329 654.038 154.847 654.038 153.039V138.487C654.038 136.661 655.52 135.196 657.328 135.196C659.136 135.196 660.618 136.679 660.618 138.487V153.039C660.618 154.865 659.154 156.329 657.328 156.329Z"
    fill="#407BFF" />
<path
    d="M597.528 79.7524H582.975C581.149 79.7524 579.685 78.27 579.685 76.4623C579.685 74.6545 581.167 73.1721 582.975 73.1721H597.528C599.354 73.1721 600.818 74.6545 600.818 76.4623C600.818 78.27 599.354 79.7524 597.528 79.7524Z"
    fill="#407BFF" />
<path
    d="M733.58 79.7524H719.009C717.183 79.7524 715.719 78.27 715.719 76.4623C715.719 74.6545 717.201 73.1721 719.009 73.1721H733.58C735.405 73.1721 736.87 74.6545 736.87 76.4623C736.87 78.27 735.405 79.7524 733.58 79.7524Z"
    fill="#407BFF" />
</svg>