<svg width="24" height="24" viewBox="0 0 24 24" fill="none" xmlns="http://www.w3.org/2000/svg">
<g clip-path="url(#clip0_63_940)">
<path d="M11.9999 24C11.8683 24.0008 11.7379 23.9755 11.616 23.9258C11.4942 23.876 11.3834 23.8027 11.2899 23.71L3.11994 15.54C2.65431 15.0755 2.28488 14.5238 2.03281 13.9163C1.78075 13.3089 1.651 12.6577 1.651 12C1.651 11.3423 1.78075 10.6911 2.03281 10.0837C2.28488 9.47621 2.65431 8.92446 3.11994 8.46L11.2899 0.290002C11.4782 0.101699 11.7336 -0.00408936 11.9999 -0.00408936C12.2662 -0.00408936 12.5216 0.101699 12.7099 0.290002C12.8982 0.478306 13.004 0.733701 13.004 1C13.004 1.2663 12.8982 1.5217 12.7099 1.71L4.53994 9.88C3.97814 10.4425 3.66258 11.205 3.66258 12C3.66258 12.795 3.97814 13.5575 4.53994 14.12L12.7099 22.29C12.8037 22.383 12.8781 22.4936 12.9288 22.6154C12.9796 22.7373 13.0057 22.868 13.0057 23C13.0057 23.132 12.9796 23.2627 12.9288 23.3846C12.8781 23.5064 12.8037 23.617 12.7099 23.71C12.6165 23.8027 12.5057 23.876 12.3838 23.9258C12.262 23.9755 12.1315 24.0008 11.9999 24Z" fill="#82868C"/>
<path d="M22.0001 24C21.8685 24.0008 21.7381 23.9755 21.6162 23.9258C21.4944 23.876 21.3836 23.8027 21.2901 23.71L11.7101 14.12C11.1483 13.5575 10.8328 12.795 10.8328 12C10.8328 11.205 11.1483 10.4425 11.7101 9.88L21.2901 0.290002C21.4784 0.101699 21.7338 -0.00408936 22.0001 -0.00408936C22.2664 -0.00408936 22.5218 0.101699 22.7101 0.290002C22.8984 0.478306 23.0042 0.733701 23.0042 1C23.0042 1.2663 22.8984 1.5217 22.7101 1.71L13.1201 11.29C13.0264 11.383 12.952 11.4936 12.9012 11.6154C12.8505 11.7373 12.8243 11.868 12.8243 12C12.8243 12.132 12.8505 12.2627 12.9012 12.3846C12.952 12.5064 13.0264 12.617 13.1201 12.71L22.7101 22.29C22.8039 22.383 22.8782 22.4936 22.929 22.6154C22.9798 22.7373 23.0059 22.868 23.0059 23C23.0059 23.132 22.9798 23.2627 22.929 23.3846C22.8782 23.5064 22.8039 23.617 22.7101 23.71C22.6167 23.8027 22.5059 23.876 22.384 23.9258C22.2622 23.9755 22.1317 24.0008 22.0001 24Z" fill="#82868C"/>
</g>
<defs>
<clipPath id="clip0_63_940">
<rect width="24" height="24" fill="white"/>
</clipPath>
</defs>
</svg>
