<svg width="40" height="40" viewBox="0 0 40 40" fill="none" xmlns="http://www.w3.org/2000/svg">
<path d="M32.0009 31.9999V23.21C32.0009 18.89 31.0709 15.59 26.0309 15.59C23.6009 15.59 21.9809 16.91 21.3209 18.17H21.2609V15.98H16.4909V31.9999H21.4709V24.05C21.4709 21.95 21.8609 19.94 24.4409 19.94C26.9909 19.94 27.0209 22.31 27.0209 24.17V31.9699H32.0009V31.9999Z" fill="white"/>
<path d="M8.38812 15.98H13.3681V32H8.38812V15.98Z" fill="white"/>
<path d="M10.88 8C9.29 8 8 9.29 8 10.88C8 12.47 9.29 13.79 10.88 13.79C12.47 13.79 13.76 12.47 13.76 10.88C13.76 9.29 12.47 8 10.88 8V8Z" fill="white"/>
</svg>
