<svg width="40" height="40" viewBox="0 0 40 40" fill="none" xmlns="http://www.w3.org/2000/svg">
<path d="M32.0002 32.0001V23.2101C32.0002 18.8901 31.0702 15.5901 26.0302 15.5901C23.6002 15.5901 21.9802 16.9101 21.3202 18.1701H21.2602V15.9801H16.4902V32.0001H21.4702V24.0501C21.4702 21.9501 21.8602 19.9401 24.4402 19.9401C26.9902 19.9401 27.0202 22.3101 27.0202 24.1701V31.9701H32.0002V32.0001Z" fill="white"/>
<path d="M8.38867 15.98H13.3687V32H8.38867V15.98Z" fill="white"/>
<path d="M10.88 8C9.29 8 8 9.29 8 10.88C8 12.47 9.29 13.79 10.88 13.79C12.47 13.79 13.76 12.47 13.76 10.88C13.76 9.29 12.47 8 10.88 8V8Z" fill="white"/>
</svg>
