<svg width="24" height="24" viewBox="0 0 24 24" fill="none" xmlns="http://www.w3.org/2000/svg">
<path d="M22.8994 22.9915L22.412 23.4915C22.0814 23.8307 21.6471 24.0002 21.2127 24.0002C20.7784 24.0002 20.344 23.8307 20.0133 23.4915L14.8667 18.2118C14.7582 18.2836 14.6488 18.354 14.5374 18.4214C13.0602 19.3152 11.3683 19.7876 9.64442 19.7876C4.32648 19.7877 0 15.3493 0 9.89383C0 4.43834 4.32648 0 9.64442 0C11.1716 0 12.6326 0.355827 13.9868 1.05764C15.2775 1.72654 16.4255 2.70444 17.3068 3.88569C17.5523 4.21461 17.4913 4.68538 17.1706 4.93709C16.8499 5.18881 16.3911 5.12628 16.1457 4.79736C14.5822 2.70187 12.2126 1.49999 9.64442 1.49999C5.13274 1.49999 1.46219 5.26545 1.46219 9.89383C1.46219 14.5222 5.13274 18.2877 9.64446 18.2877C12.5581 18.2877 15.2748 16.6779 16.7344 14.0865C16.9364 13.7279 17.3836 13.6051 17.7332 13.8123C18.0828 14.0196 18.2025 14.4783 18.0005 14.8369C17.9214 14.9773 17.838 15.1147 17.7525 15.2507L22.8995 20.5308C23.5608 21.2093 23.5607 22.3132 22.8994 22.9915ZM21.8655 21.5914L16.86 16.4565C16.6038 16.7527 16.3312 17.0338 16.0425 17.2967L21.0472 22.4308C21.1369 22.5228 21.2884 22.5228 21.378 22.4308L21.8654 21.9308C21.9552 21.8389 21.9551 21.6834 21.8655 21.5914Z" fill="white"/>
<path d="M5.01772 13.0001C5.30107 13.0001 5.53077 12.7704 5.53077 12.487V10.1401C5.53077 9.46006 5.90084 8.93005 6.40549 8.93005C6.8849 8.93005 7.17927 9.38006 7.17927 10.1001V12.487C7.17927 12.7704 7.40897 13.0001 7.69232 13.0001C7.97567 13.0001 8.20538 12.7704 8.20538 12.487V9.92006C8.20538 8.72005 7.66709 7.96004 6.75874 7.96004C6.30824 7.96004 5.9839 8.13908 5.75176 8.41301C5.69749 8.47705 5.53077 8.42399 5.53077 8.34005C5.53077 8.21854 5.43228 8.12005 5.31077 8.12005H5.01772C4.73437 8.12005 4.50467 8.34975 4.50467 8.6331V12.487C4.50467 12.7704 4.73437 13.0001 5.01772 13.0001Z" fill="white"/>
<path d="M11.0698 13.1801C11.9603 13.1801 12.6019 12.6847 12.8644 11.9726C12.9718 11.681 12.7208 11.4101 12.41 11.4101C12.1436 11.4101 11.9356 11.6224 11.7884 11.8444C11.6284 12.0859 11.3679 12.2201 11.0698 12.2201C10.9266 12.2201 10.7945 12.1888 10.6759 12.1313C9.9323 11.7708 10.7016 10.8601 11.5279 10.8601H12.7427C12.8918 10.8601 13.0127 10.7392 13.0127 10.5901C13.0127 9.00006 12.2894 7.96004 11.0362 7.96004C9.84185 7.96004 8.97554 9.01006 8.97554 10.5501C8.97554 12.2401 9.84185 13.1801 11.0698 13.1801ZM11.0221 9.98007C10.4834 9.98007 10.0238 9.44395 10.4315 9.09172C10.5943 8.9511 10.7972 8.87005 11.0278 8.87005C11.2764 8.87005 11.4863 8.96037 11.6437 9.11942C12.0059 9.48529 11.5369 9.98007 11.0221 9.98007Z" fill="white"/>
<path d="M15.2307 13.0001C15.624 13.0001 15.9637 12.7249 16.0453 12.3402L16.6118 9.67006C16.6309 9.59744 16.8012 9.59601 16.8137 9.67006L17.3931 12.3691C17.4721 12.7372 17.7975 13.0001 18.1739 13.0001C18.5409 13.0001 18.8606 12.75 18.949 12.3938L19.864 8.70722C19.9381 8.40876 19.7122 8.12005 19.4047 8.12005C19.1832 8.12005 18.9913 8.27377 18.9429 8.48998L18.2855 11.4301C18.2639 11.5278 18.0843 11.5286 18.0668 11.4301L17.5227 8.78649C17.4429 8.39848 17.1013 8.12005 16.7052 8.12005C16.3083 8.12005 15.9662 8.39954 15.8872 8.78849L15.3502 11.4301C15.3266 11.5313 15.159 11.5322 15.1399 11.4301L14.4808 8.51557C14.4285 8.28428 14.223 8.12005 13.9859 8.12005C13.6544 8.12005 13.4119 8.43266 13.4944 8.75372L14.4242 12.3745C14.5187 12.7427 14.8506 13.0001 15.2307 13.0001Z" fill="white"/>
<path d="M22.2598 13.1801C23.3195 13.1801 24.0008 12.5001 24.0008 11.5701C24.0008 10.7101 23.4709 10.2701 22.6635 10.0801L22.1673 9.96007C21.6458 9.84006 21.486 9.69006 21.486 9.40006C21.486 9.05006 21.7804 8.87005 22.1588 8.87005C22.4476 8.87005 22.6707 8.99081 22.8059 9.19828C22.9562 9.42894 23.1629 9.66006 23.4382 9.66006C23.7328 9.66006 23.9788 9.41267 23.8947 9.13033C23.6806 8.41143 23.0565 7.96004 22.1588 7.96004C21.1496 7.96004 20.4767 8.60005 20.4767 9.45006C20.4767 10.2601 20.9645 10.7401 21.8224 10.9401L22.3187 11.0601C22.756 11.1601 22.9915 11.3101 22.9915 11.6401C22.9915 12.0101 22.6971 12.2701 22.2345 12.2701C21.86 12.2701 21.5999 12.0964 21.4652 11.8005C21.3505 11.5487 21.1417 11.3201 20.8651 11.3201C20.5677 11.3201 20.3244 11.5741 20.4054 11.8602C20.6383 12.6827 21.2951 13.1801 22.2598 13.1801Z" fill="white"/>
</svg>
