<svg width="18" height="24" viewBox="0 0 18 24" fill="none" xmlns="http://www.w3.org/2000/svg">
<path fill-rule="evenodd" clip-rule="evenodd" d="M12.3338 12.0002V4.6959C12.3338 2.96701 10.8414 1.56547 9.00039 1.56547C7.15938 1.56547 5.66695 2.96701 5.66695 4.6959V12.0002C5.66695 13.7291 7.15938 15.1307 9.00039 15.1307C10.8414 15.1307 12.3338 13.7291 12.3338 12.0002ZM9.00039 0.000252724C6.23888 0.000252724 4.00023 2.10256 4.00023 4.6959V12.0002C4.00023 14.5936 6.23888 16.6959 9.00039 16.6959C11.7619 16.6959 14.0006 14.5936 14.0006 12.0002V4.6959C14.0006 2.10256 11.7619 0.000252724 9.00039 0.000252724Z" fill="white"/>
<path fill-rule="evenodd" clip-rule="evenodd" d="M1.18933 9.28329C1.56997 9.28329 1.87854 9.63368 1.87854 10.0659V11.1094C1.87854 15.5757 5.0671 18.1528 9.00039 18.1528C12.9337 18.1528 16.1223 15.5757 16.1223 11.1094V10.0659C16.1223 9.63368 16.4308 9.28329 16.8115 9.28329C17.1921 9.28329 17.5007 9.63368 17.5007 10.0659V11.1094C17.5007 16.4401 13.695 19.7181 9.00039 19.7181C4.30582 19.7181 0.500114 16.4401 0.500114 11.1094V10.0659C0.500114 9.63368 0.808685 9.28329 1.18933 9.28329Z" fill="white"/>
<path fill-rule="evenodd" clip-rule="evenodd" d="M9.00036 18.7831C9.55264 18.7831 10.0004 19.1017 10.0004 19.4946V23.2891C10.0004 23.6821 9.55264 24.0006 9.00036 24.0006C8.44807 24.0006 8.00036 23.6821 8.00036 23.2891V19.4946C8.00036 19.1017 8.44807 18.7831 9.00036 18.7831Z" fill="white"/>
</svg>
