<svg width="24" height="25" viewBox="0 0 24 25" fill="none" xmlns="http://www.w3.org/2000/svg">
<path d="M19.3322 15.522C18.5761 15.5226 17.8315 15.7072 17.1627 16.0598C16.4939 16.4124 15.9209 16.9225 15.4932 17.546L8.9842 14.607C9.44651 13.4906 9.44831 12.2367 8.9892 11.119L15.4892 8.16498C16.1231 9.08174 17.0645 9.74095 18.1428 10.023C19.2211 10.3051 20.3647 10.1914 21.3663 9.70249C22.3679 9.21358 23.1611 8.38188 23.602 7.35825C24.043 6.33462 24.1024 5.18686 23.7696 4.12316C23.4367 3.05946 22.7337 2.15028 21.7879 1.56054C20.8422 0.970798 19.7164 0.739556 18.6147 0.90876C17.5131 1.07796 16.5086 1.6364 15.7834 2.48279C15.0583 3.32917 14.6605 4.40743 14.6622 5.52198C14.6664 5.78578 14.6932 6.04874 14.7422 6.30798L7.8322 9.44798C7.16854 8.8262 6.33771 8.41182 5.44177 8.25575C4.54584 8.09967 3.62383 8.2087 2.78901 8.56944C1.95419 8.93018 1.24293 9.52692 0.742596 10.2863C0.242267 11.0458 -0.0253343 11.9348 -0.0273325 12.8442C-0.0293306 13.7537 0.234362 14.6439 0.731349 15.4055C1.22834 16.1671 1.93697 16.767 2.7702 17.1314C3.60342 17.4958 4.52495 17.6088 5.42156 17.4567C6.31817 17.3046 7.15081 16.8938 7.8172 16.275L14.7452 19.403C14.6971 19.662 14.6707 19.9246 14.6662 20.188C14.666 21.1111 14.9396 22.0136 15.4523 22.7812C15.9651 23.5488 16.6939 24.1472 17.5468 24.5005C18.3996 24.8539 19.338 24.9464 20.2434 24.7664C21.1488 24.5863 21.9805 24.1418 22.6333 23.4891C23.286 22.8363 23.7305 22.0046 23.9106 21.0992C24.0906 20.1938 23.9981 19.2554 23.6448 18.4025C23.2914 17.5497 22.6931 16.8208 21.9254 16.3081C21.1578 15.7954 20.2553 15.5218 19.3322 15.522ZM19.3322 2.85498C19.8597 2.85479 20.3755 3.01103 20.8142 3.30397C21.2529 3.5969 21.5949 4.01336 21.7969 4.50067C21.9989 4.98799 22.0519 5.52426 21.9491 6.04168C21.8463 6.55909 21.5924 7.0344 21.2194 7.40748C20.8465 7.78057 20.3712 8.03468 19.8539 8.13767C19.3365 8.24065 18.8002 8.1879 18.3128 7.98607C17.8254 7.78424 17.4088 7.4424 17.1157 7.00379C16.8226 6.56519 16.6662 6.04951 16.6662 5.52198C16.6667 4.81499 16.9478 4.13708 17.4476 3.63707C17.9474 3.13705 18.6252 2.85578 19.3322 2.85498ZM4.6662 15.522C4.13867 15.5222 3.62294 15.3659 3.18422 15.073C2.7455 14.7801 2.40351 14.3636 2.2015 13.8763C1.99949 13.389 1.94653 12.8527 2.04932 12.3353C2.15212 11.8179 2.40605 11.3426 2.77899 10.9695C3.15194 10.5964 3.62715 10.3423 4.14453 10.2393C4.6619 10.1363 5.1982 10.1891 5.68559 10.3909C6.17297 10.5927 6.58956 10.9346 6.88266 11.3732C7.17576 11.8118 7.3322 12.3275 7.3322 12.855C7.33141 13.5619 7.0503 14.2397 6.55053 14.7396C6.05076 15.2396 5.37312 15.5209 4.6662 15.522ZM19.3322 22.855C18.8047 22.855 18.2891 22.6986 17.8505 22.4055C17.4119 22.1125 17.0701 21.6959 16.8682 21.2086C16.6664 20.7213 16.6135 20.185 16.7164 19.6677C16.8194 19.1503 17.0734 18.6751 17.4463 18.3021C17.8193 17.9291 18.2945 17.6751 18.8119 17.5722C19.3292 17.4693 19.8655 17.5221 20.3528 17.724C20.8401 17.9259 21.2567 18.2677 21.5497 18.7063C21.8428 19.1449 21.9992 19.6605 21.9992 20.188C21.9987 20.8952 21.7175 21.5732 21.2175 22.0733C20.7174 22.5733 20.0394 22.8545 19.3322 22.855Z" fill="white"/>
</svg>
