<svg width="24" height="13" viewBox="0 0 24 13" fill="none" xmlns="http://www.w3.org/2000/svg">
<path d="M12.0002 12.17C11.3431 12.1712 10.6923 12.0429 10.0849 11.7923C9.47746 11.5418 8.92538 11.174 8.46019 10.71L0.290185 2.54002C0.101882 2.35172 -0.00390625 2.09632 -0.00390625 1.83002C-0.00390625 1.56372 0.101882 1.30832 0.290185 1.12002C0.478489 0.931716 0.733884 0.825928 1.00019 0.825928C1.26649 0.825928 1.52188 0.931716 1.71019 1.12002L9.88019 9.29002C10.4427 9.85182 11.2052 10.1674 12.0002 10.1674C12.7952 10.1674 13.5577 9.85182 14.1202 9.29002L22.2902 1.12002C22.4785 0.931716 22.7339 0.825928 23.0002 0.825928C23.2665 0.825928 23.5219 0.931716 23.7102 1.12002C23.8985 1.30832 24.0043 1.56372 24.0043 1.83002C24.0043 2.09632 23.8985 2.35172 23.7102 2.54002L15.5402 10.71C15.075 11.174 14.5229 11.5418 13.9155 11.7923C13.3081 12.0429 12.6572 12.1712 12.0002 12.17Z" fill="white"/>
</svg>
