<svg width="39" height="24" viewBox="0 0 39 24" fill="none" xmlns="http://www.w3.org/2000/svg">
<path d="M34.25 19H17.75C17.3358 19 17 19.4029 17 19.9C17 20.3971 17.3358 20.8 17.75 20.8H34.25C34.6642 20.8 35 20.3971 35 19.9C35 19.4029 34.6642 19 34.25 19Z" fill="white"/>
<path d="M37.875 3H13.125C12.5037 3 12 3.40294 12 3.9C12 4.39706 12.5037 4.8 13.125 4.8H37.875C38.4963 4.8 39 4.39706 39 3.9C39 3.40294 38.4963 3 37.875 3Z" fill="white"/>
<path d="M29.875 11.0002H5.125C4.50368 11.0002 4 11.4032 4 11.9002C4 12.3973 4.50368 12.8002 5.125 12.8002H29.875C30.4963 12.8002 31 12.3973 31 11.9002C31 11.4032 30.4963 11.0002 29.875 11.0002Z" fill="white"/>
</svg>
