<svg width="20" height="21" viewBox="0 0 20 21" fill="none" xmlns="http://www.w3.org/2000/svg">
<path d="M10 20.25C7.32895 20.25 4.81766 19.2098 2.92892 17.3211C1.04019 15.4323 0 12.9211 0 10.25C0 7.57895 1.04019 5.06766 2.92892 3.17892C4.81766 1.29019 7.32895 0.25 10 0.25C12.6711 0.25 15.1823 1.29019 17.0711 3.17892C18.9598 5.06766 20 7.57895 20 10.25C20 12.2239 19.4142 14.1436 18.3057 15.8015C18.0659 16.1602 17.5807 16.2565 17.222 16.0168C16.8634 15.7769 16.767 15.2917 17.0068 14.9331C17.9428 13.5329 18.4375 11.9137 18.4375 10.25C18.4375 5.5976 14.6524 1.8125 10 1.8125C5.3476 1.8125 1.5625 5.5976 1.5625 10.25C1.5625 14.9024 5.3476 18.6875 10 18.6875C11.5431 18.6875 13.0525 18.2673 14.3648 17.4724C14.7337 17.2489 15.2141 17.3669 15.4378 17.736C15.6613 18.1049 15.5434 18.5854 15.1743 18.8088C13.6179 19.7516 11.8286 20.25 10 20.25ZM9.1507 13.9333L13.0453 11.677C13.5599 11.3788 13.8672 10.8454 13.8672 10.25C13.8672 9.6546 13.5599 9.12115 13.0452 8.823L9.1507 6.56668C8.63571 6.26837 8.02032 6.26761 7.50473 6.56485C6.98807 6.86255 6.67969 7.39676 6.67969 7.99368V12.5063C6.67969 13.1032 6.98807 13.6375 7.50473 13.9352C7.76215 14.0835 8.04413 14.1575 8.32611 14.1575C8.60931 14.1576 8.89267 14.0829 9.1507 13.9333ZM8.36746 7.91861L12.262 10.1749C12.2737 10.1818 12.3047 10.1996 12.3047 10.25C12.3047 10.3004 12.2737 10.3182 12.262 10.3251L8.36746 12.5814C8.3551 12.5884 8.32626 12.6052 8.28506 12.5814C8.24219 12.5567 8.24219 12.5214 8.24219 12.5063V7.99368C8.24219 7.97858 8.24219 7.94333 8.28506 7.91861C8.30093 7.90945 8.31497 7.9064 8.32687 7.9064C8.34595 7.90625 8.35983 7.91434 8.36746 7.91861Z" fill="#BABFC5"/>
</svg>
